<?xml version="1.0" encoding="UTF-8"?>
<svg width="118.27mm" height="93.599mm" version="1.1" viewBox="0 0 118.27297 93.598916" xmlns="http://www.w3.org/2000/svg" xmlns:cc="http://creativecommons.org/ns#" xmlns:dc="http://purl.org/dc/elements/1.1/" xmlns:rdf="http://www.w3.org/1999/02/22-rdf-syntax-ns#">
<metadata>
<rdf:RDF>
<cc:Work rdf:about="">
<dc:format>image/svg+xml</dc:format>
<dc:type rdf:resource="http://purl.org/dc/dcmitype/StillImage"/>
<dc:title/>
</cc:Work>
</rdf:RDF>
</metadata>
<g transform="translate(-44.946 -33.612)">
<g fill="#f25c2c" stroke-width=".26511px" aria-label="PUZZLE">
<path d="m45.049 67.097c-0.0357 4.8911-0.0357 9.1397-0.0714 13.638 0 0.99965 0.71404 1.6423 1.9993 1.6423 1.1425 0 2.0707-0.49982 2.0707-1.7851 0-2.5348-0.0714-4.6412-0.0714-6.819h1.1425c1.7494 0 4.7126 0 5.9265-0.32132 3.4988-0.82114 5.7837-4.2128 5.8551-7.6045 0.0357-3.0347-1.1425-5.1054-3.1418-6.4263-1.678-1.1068-3.8558-1.6066-6.1407-1.6066-1.9279 0.0357-4.3913 0.0357-5.4981 0.14281-1.0711 0.0714-1.8208 0.64263-2.0707 1.5709-0.17851 0.96395-0.0714 2.2135-0.0714 3.2846 0.0357 1.0711 0.0714 3.1775 0.0714 4.2842zm3.9629 0.14281c0-2.2849-0.0357-4.4984-0.0357-5.8551 0.74974-0.0357 2.6776-0.0357 3.4274-0.0357 1.4281 0 2.5705 0.14281 3.6059 0.67834 1.1425 0.60693 2.035 1.7494 1.9993 3.6059-0.0357 1.8565-1.1068 3.8558-3.0704 4.3199-0.96395 0.24991-2.3563 0.28561-4.1771 0.24991h-1.7137c0-1.0354-0.0357-1.9993-0.0357-2.9633z"/>
<path d="m65.477 72.202c0 6.4977 3.713 10.175 9.461 10.175 6.2478 0 9.8537-4.2842 9.8537-11.068l-0.0714-11.103c0-1.6423-0.60693-2.2849-1.9636-2.2849-1.2139 0-2.035 0.57123-2.035 1.8922 0 3.6773 0.14281 8.7826 0.0357 12.317-0.0357 3.7487-2.1778 6.5691-5.5695 6.5691-3.6059 0-5.748-2.0707-5.748-6.5334 0-2.9276-0.0357-7.7473 0.0357-12.139 0-1.4281-0.53553-2.035-2.0707-2.035-1.2139 0-1.8922 0.64263-1.8922 1.9636 0 3.0347-0.0357 7.8187-0.0357 12.246z"/>
<path d="m90.379 61.599c2.8204 0 7.3546-0.0357 10.568-0.0357l-1.5352 2.3563c-2.0707 2.8918-4.2485 5.9979-6.8548 9.6395l-2.2492 3.1061c-0.92825 1.2496-1.5352 2.2849-1.7494 3.356-0.0357 0.35702 0 0.64263 0.0714 0.92825 0.21421 0.99965 1.321 1.2139 2.2135 1.2139 4.1771 0 8.7469 0 13.21-0.0357 1.7137 0 2.1778-0.89255 2.1778-1.7851 0-0.92825-0.46412-1.8922-1.8565-1.8922-2.0707 0-5.6409 0.17851-10.925 0.17851 0.57123-0.82114 1.1782-1.7494 1.8208-2.6776 3.1775-4.6769 5.8194-8.4256 8.6041-12.353l1.1782-1.7851c0.57123-0.82114 0.92825-1.5709 0.92825-2.1778 0-1.1068-0.71404-1.7494-1.9636-1.7494-1.8922 0-4.2485 0.0714-5.9979 0.0714h-7.4974c-1.2853 0-1.8922 0.74974-1.8922 1.8922 0 1.0711 0.64263 1.7494 1.7494 1.7494z"/>
<path d="m110.25 61.599c2.8204 0 7.3546-0.0357 10.568-0.0357l-1.5352 2.3563c-2.0707 2.8918-4.2485 5.9979-6.8548 9.6395l-2.2492 3.1061c-0.92825 1.2496-1.5352 2.2849-1.7494 3.356-0.0357 0.35702 0 0.64263 0.0714 0.92825 0.21421 0.99965 1.321 1.2139 2.2135 1.2139 4.1771 0 8.747 0 13.21-0.0357 1.7137 0 2.1778-0.89255 2.1778-1.7851 0-0.92825-0.46412-1.8922-1.8565-1.8922-2.0707 0-5.6409 0.17851-10.925 0.17851 0.57123-0.82114 1.1782-1.7494 1.8208-2.6776 3.1775-4.6769 5.8194-8.4256 8.6041-12.353l1.1782-1.7851c0.57123-0.82114 0.92825-1.5709 0.92825-2.1778 0-1.1068-0.71404-1.7494-1.9636-1.7494-1.8922 0-4.2485 0.0714-5.9979 0.0714h-7.4974c-1.2853 0-1.8922 0.74974-1.8922 1.8922 0 1.0711 0.64263 1.7494 1.7494 1.7494z"/>
<path d="m129.95 59.635c0 2.4634 0.0357 6.8905 0.0357 10.139-0.0357 2.999-0.17851 6.0336-0.17851 8.7826v1.3567c0.17851 1.9636 0.96395 2.392 3.6416 2.2849 1.4638-0.0714 3.2132-0.0714 5.034-0.0714l4.07 0.0357c1.321 0 1.8565-0.85684 1.8565-2.035 0-0.96395-0.46413-1.678-1.7494-1.678l-5.1054 0.17851c-0.85685 0.0357-2.7848 0.0357-3.7844 0.0357 0-0.35702 0.0357-0.92825 0.0357-4.8197 0-2.1778 0.0357-4.4627 0.0357-6.6762 0.0357-2.6062 0.1071-5.1768 0.1071-7.5331-0.0357-1.3924-0.82114-1.8208-1.8565-1.8208-1.1425 0-2.1064 0.60693-2.1421 1.8208z"/>
<path d="m148.01 59.742c0 2.9275-0.0357 5.7837-0.0357 8.6755 0 5.6766-0.14281 10.068-0.14281 10.246v1.321c0.10711 1.9636 0.85685 2.2492 3.7844 2.2492 4.2842 0 7.2118 0.0714 9.6038 0 1.6423-0.0357 1.9993-0.92825 1.9993-1.8922 0-1.0711-0.46413-1.7494-1.5709-1.7494-0.57123 0-1.0354 0.0357-1.7494 0.0714-3.6416 0.0357-6.4263 0.0714-8.14 0.0357 0-1.4638 0.0357-3.0704 0.0357-4.5341 0-0.74974 0-1.5709 0.0357-2.2849 1.4281 0 6.0336-0.0357 7.6045-0.0357 1.4281 0 1.8565-0.71404 1.8565-1.678 0.0357-1.4995-0.82114-1.7137-2.1778-1.7137-1.3567 0.0357-4.7126 0.1071-5.7837 0.1071h-1.4281v-0.46412l0.0357-3.356v-3.4274h1.5709c2.9276 0 6.6762 0.0357 8.2471-0.0357 0.92825-0.21421 1.1425-1.0711 1.1068-1.7851 0-0.92825-0.57123-1.6066-1.9279-1.6066-1.7494 0-4.3556 0.0714-8.8184 0.0714-0.53553-0.0357-1.1782-0.0357-1.5709-0.0357-1.4638 0-2.4634 0.46412-2.5348 1.8208z"/>
</g>
<g fill="#03254c" stroke-width=".3128px" aria-label="CHALLENGE">
<path d="m55.347 88.297c-0.76636-0.32844-2.0363-0.59119-3.1968-0.61309-3.5253-0.0219-7.16 2.956-7.2038 7.8388-0.04379 4.6201 3.372 7.3133 6.8754 7.3571 2.321 0.0219 4.8171-1.0291 4.839-2.102 0-0.59119-0.35034-1.27-0.96343-1.27-0.43792 0-0.61309 0.17517-0.96343 0.35034-0.70067 0.41602-1.6641 0.74447-2.6713 0.72257-2.5618 0-4.7077-2.2115-4.6858-5.1456 0.0219-3.3063 2.2553-5.5397 4.5982-5.5397 1.0291 0 1.8393 0.26275 2.4524 0.5255 0.30654 0.15327 0.59119 0.28465 0.96343 0.28465 0.72257 0.0219 1.0291-0.5255 1.051-1.1824 0-0.63498-0.50361-0.96343-1.0948-1.2262z"/>
<path d="m70.88 95.37c0.0219-2.8684 0.0219-4.0289 0.0219-6.4593 0-0.78826-0.43792-1.1824-1.2043-1.1824-0.74447 0-1.2262 0.32844-1.2481 1.2043 0 1.3138 0.0219 3.6347 0.0219 5.474l-1.1167 0.0219c-1.1824 0-2.6056 0.0219-3.7661 0.0219-1.27 0-1.7955-0.0219-2.102-0.0219-0.0219-3.4815 0-4.3354-0.0219-5.693 0-0.65688-0.5255-0.94153-1.1824-0.94153-0.83205 0-1.2919 0.35034-1.2919 1.1167l0.08758 5.0142c0.04379 2.6056-0.04379 5.2332-0.04379 7.8388 0 0.74446 0.5255 1.0291 1.2043 1.0291 0.70067 0 1.2919-0.28465 1.2919-1.0072l-0.04379-5.1237c2.3648 0 4.7295-0.04379 6.9629-0.04379l0.0219 3.2625v1.8393c0 0.72257 0.50361 1.0729 1.2262 1.0729 0.81015 0 1.27-0.30654 1.27-1.0729z"/>
<path d="m73.117 101.63c0 0.83205 0.74446 1.1386 1.4013 1.1386 0.65688 0 0.89774-0.41602 1.1386-1.0072 0.37223-0.91964 0.89774-2.3867 1.0948-2.8465h2.1458c1.5765 0 3.0217 0 3.788 0.0219 0.04379 0.19706 0.45982 1.27 1.1386 2.9998 0.26275 0.61309 0.5474 0.85395 1.2043 0.85395 0.76636 0 1.3357-0.5474 1.3357-1.0072 0-0.30654-0.08759-0.5474-0.19706-0.78826-0.50361-1.1386-0.98532-2.2991-1.7955-4.3354-0.08758-0.21896-0.21896-0.48171-0.30654-0.67878-0.98532-2.4524-2.2115-5.7149-2.8903-7.3133-0.21896-0.59119-0.61309-0.89774-1.467-0.89774-0.5693 0-1.1386 0.30654-1.3576 0.85395-1.5108 3.8318-2.2991 5.7149-2.6932 6.7221-0.19706 0.45982-1.1386 2.6932-2.1677 5.0361-0.24086 0.50361-0.37223 0.85395-0.37223 1.2481zm6.6345-10.904c0.43792 1.27 1.7955 5.058 2.2115 6.2185-1.7955 0.04379-3.4815 0.04379-4.5325 0.04379 0.76636-2.0363 1.7736-4.642 2.321-6.2623z"/>
<path d="m88.629 88.867c0 1.5108 0.0219 4.2259 0.0219 6.2185-0.0219 1.8393-0.10948 3.7004-0.10948 5.3864v0.83205c0.10948 1.2043 0.59119 1.467 2.2334 1.4014 0.89774-0.0438 1.9706-0.0438 3.0873-0.0438l2.4962 0.0219c0.81015 0 1.1386-0.52551 1.1386-1.2481 0-0.5912-0.28465-1.0291-1.0729-1.0291l-3.1311 0.10948c-0.52551 0.0219-1.7079 0.0219-2.321 0.0219 0-0.21896 0.0219-0.5693 0.0219-2.956 0-1.3357 0.0219-2.737 0.0219-4.0946 0.0219-1.5984 0.06569-3.1749 0.06569-4.6201-0.0219-0.85395-0.50361-1.1167-1.1386-1.1167-0.70067 0-1.2919 0.37223-1.3138 1.1167z"/>
<path d="m99.62 88.867c0 1.5108 0.0219 4.2259 0.0219 6.2185-0.0219 1.8393-0.10948 3.7004-0.10948 5.3864v0.83205c0.10948 1.2043 0.5912 1.467 2.2334 1.4014 0.89774-0.0438 1.9706-0.0438 3.0874-0.0438l2.4962 0.0219c0.81015 0 1.1386-0.52551 1.1386-1.2481 0-0.5912-0.28465-1.0291-1.0729-1.0291l-3.1311 0.10948c-0.52551 0.0219-1.7079 0.0219-2.321 0.0219 0-0.21896 0.0219-0.5693 0.0219-2.956 0-1.3357 0.0219-2.737 0.0219-4.0946 0.0219-1.5984 0.0657-3.1749 0.0657-4.6201-0.0219-0.85395-0.50361-1.1167-1.1386-1.1167-0.70067 0-1.2919 0.37223-1.3138 1.1167z"/>
<path d="m110.7 88.932c0 1.7955-0.0219 3.5472-0.0219 5.3207 0 3.4815-0.0876 6.1747-0.0876 6.2842v0.81015c0.0657 1.2043 0.52551 1.3794 2.321 1.3794 2.6275 0 4.423 0.0438 5.89 0 1.0072-0.0219 1.2262-0.5693 1.2262-1.1605 0-0.65688-0.28465-1.0729-0.96343-1.0729-0.35033 0-0.63498 0.0219-1.0729 0.0438-2.2334 0.0219-3.9413 0.0438-4.9923 0.0219 0-0.89774 0.0219-1.8831 0.0219-2.7808 0-0.45982 0-0.96343 0.0219-1.4013 0.87584 0 3.7004-0.0219 4.6639-0.0219 0.87584 0 1.1386-0.43792 1.1386-1.0291 0.0219-0.91963-0.50361-1.051-1.3357-1.051-0.83205 0.0219-2.8903 0.06569-3.5472 0.06569h-0.87584v-0.28465l0.0219-2.0582v-2.102h0.96342c1.7955 0 4.0946 0.0219 5.058-0.0219 0.5693-0.13138 0.70067-0.65688 0.67878-1.0948 0-0.5693-0.35034-0.98532-1.1824-0.98532-1.0729 0-2.6713 0.04379-5.4083 0.04379-0.32844-0.0219-0.72257-0.0219-0.96343-0.0219-0.89774 0-1.5108 0.28465-1.5546 1.1167z"/>
<path d="m124.93 101.41c-0.0219-2.2553-0.0876-7.3352-0.0876-9.7 2.2334 3.1749 5.3426 7.5979 6.963 9.9627 0.50361 0.70068 0.81015 1.0729 1.4889 1.0729 0.78826 0 1.4451-0.43792 1.4451-1.1605 0-2.7151-0.0219-3.8756-0.0438-5.058 0-2.3867 0.0219-4.9266 0.0219-7.3352 0-0.89774-0.35033-1.4013-1.1605-1.4013-1.0072 0-1.27 0.5693-1.2481 1.5327l0.0438 4.8171c0 1.5546 0.0219 3.3063 0.0438 4.4449l-1.7517-2.4961-5.1018-7.2038c-0.43792-0.61309-0.83205-1.0948-1.5546-1.0948s-1.467 0.39413-1.467 1.0948c-0.0219 0.87584 0 1.7955 0 2.4086 0 2.0363 0.0219 2.8903 0 4.9047-0.0219 4.1384-0.0219 5.1018-0.0219 5.474 0.0219 0.78826 0.5255 1.0948 1.27 1.0948 0.74446 0 1.1605-0.41602 1.1605-1.3576z"/>
<path d="m144.92 87.64c-3.9413 0-7.4666 3.2625-7.4666 7.6198 0 4.5325 3.0654 7.5979 7.1162 7.5979 4.0727 0 6.6126-2.8246 6.6345-6.6783 0-1.0291-0.26275-1.6641-1.4013-1.6641h-3.4158c-0.72257 0.0219-1.0291 0.45982-1.0291 1.0291 0 0.5693 0.32844 1.0291 0.96342 1.051h2.4743c-0.0438 2.0144-1.4889 4.0289-3.9851 4.0289-2.9341 0-4.9266-2.0582-4.9266-5.5178 0-2.9779 2.4742-5.3207 4.9485-5.3207 1.3357 0 2.2334 0.37223 2.8903 0.76636 0.30655 0.17517 0.74447 0.41602 1.1605 0.41602 0.61309 0 1.0072-0.61309 1.0072-1.1605 0-0.45982-0.28465-0.74447-0.76636-1.0291-0.98532-0.61309-2.4086-1.1386-4.204-1.1386z"/>
<path d="m153.89 88.932c0 1.7955-0.0219 3.5472-0.0219 5.3207 0 3.4815-0.0876 6.1747-0.0876 6.2842v0.81015c0.0657 1.2043 0.52551 1.3794 2.321 1.3794 2.6275 0 4.423 0.0438 5.89 0 1.0072-0.0219 1.2262-0.5693 1.2262-1.1605 0-0.65688-0.28465-1.0729-0.96343-1.0729-0.35033 0-0.63498 0.0219-1.0729 0.0438-2.2334 0.0219-3.9413 0.0438-4.9923 0.0219 0-0.89774 0.0219-1.8831 0.0219-2.7808 0-0.45982 0-0.96343 0.0219-1.4013 0.87584 0 3.7004-0.0219 4.6639-0.0219 0.87584 0 1.1386-0.43792 1.1386-1.0291 0.0219-0.91963-0.5036-1.051-1.3356-1.051-0.83205 0.0219-2.8903 0.06569-3.5472 0.06569h-0.87584v-0.28465l0.0219-2.0582v-2.102h0.96342c1.7955 0 4.0946 0.0219 5.058-0.0219 0.5693-0.13138 0.70068-0.65688 0.67878-1.0948 0-0.5693-0.35034-0.98532-1.1824-0.98532-1.0729 0-2.6713 0.04379-5.4083 0.04379-0.32844-0.0219-0.72257-0.0219-0.96343-0.0219-0.89774 0-1.5108 0.28465-1.5546 1.1167z"/>
</g>
<text x="43.953487" y="60.841984" fill="#000000" font-family="sans-serif" font-size="10.583px" letter-spacing="0px" stroke-width=".26458px" word-spacing="0px" style="line-height:125%" xml:space="preserve"><tspan x="43.953487" y="70.20575" stroke-width=".26458px"/></text>
<text x="45.358395" y="60.641289" fill="#000000" font-family="'Gotham Condensed'" font-size="10.583px" letter-spacing="0px" stroke-width=".26458px" word-spacing="0px" style="line-height:125%" xml:space="preserve"><tspan x="45.358395" y="70.901802" font-family="'Gotham Condensed'" stroke-width=".26458px"/></text>
<g transform="matrix(1.0012 0 0 1.0012 -.19151 -25.873)">
<g fill="#03254c" stroke-width=".26458px" aria-label="CS">
<path d="m53.189 76.165q-1.7385 0-3.2286-0.63218-1.4901-0.63218-2.5739-1.7159-1.0837-1.1063-1.6933-2.5964-0.6096-1.4901-0.6096-3.1835v-0.04516q0-1.6933 0.6096-3.1609 0.6096-1.4901 1.6933-2.5964 1.0837-1.1289 2.5964-1.7611 1.5127-0.65476 3.3415-0.65476 1.1063 0 2.0094 0.18062 0.92569 0.18062 1.6708 0.49671t1.3772 0.76764q0.63218 0.45156 1.174 0.99342l-2.2126 2.5513q-0.92569-0.83538-1.8965-1.3095-0.94827-0.47413-2.1449-0.47413-0.99342 0-1.8514 0.38382-0.83538 0.38382-1.445 1.0612t-0.94827 1.5804q-0.33867 0.88053-0.33867 1.8965v0.04515q0 1.016 0.33867 1.9191 0.33867 0.90311 0.92569 1.5804 0.6096 0.67733 1.445 1.0837 0.85796 0.38382 1.874 0.38382 1.3547 0 2.2804-0.49671 0.94827-0.49671 1.874-1.3547l2.2126 2.2352q-0.6096 0.65476-1.2644 1.174-0.65476 0.51929-1.445 0.90311-0.76764 0.36124-1.6933 0.54187-0.92569 0.2032-2.0772 0.2032z"/>
<path d="m68.074 76.12q-1.8062 0-3.5447-0.6096-1.7385-0.63218-3.1609-1.9191l2.0546-2.461q1.0837 0.88053 2.2126 1.3998 1.1515 0.51929 2.5061 0.51929 1.0837 0 1.6708-0.38382 0.6096-0.4064 0.6096-1.1063v-0.04515q0-0.33867-0.13547-0.58702-0.11289-0.27093-0.47413-0.49671-0.33867-0.22578-0.97084-0.45156-0.6096-0.22578-1.603-0.47413-1.1966-0.29352-2.1675-0.65476-0.97084-0.36124-1.6482-0.88053-0.67733-0.54187-1.0612-1.3321-0.36124-0.79022-0.36124-1.9643v-0.04516q0-1.0837 0.4064-1.9417 0.4064-0.88053 1.1289-1.5127 0.74507-0.63218 1.7611-0.97084t2.2352-0.33867q1.7385 0 3.1835 0.51929 1.4676 0.51929 2.6868 1.4901l-1.8062 2.619q-1.0612-0.72249-2.0772-1.1289-1.016-0.42898-2.032-0.42898t-1.5353 0.4064q-0.49671 0.38382-0.49671 0.97084v0.04516q0 0.38382 0.13547 0.67733 0.15804 0.27093 0.54187 0.49671 0.38382 0.22578 1.0386 0.42898 0.67733 0.2032 1.6933 0.47413 1.1966 0.31609 2.1223 0.72249 0.94827 0.38382 1.5804 0.94827 0.65476 0.54187 0.97084 1.2869 0.33867 0.74507 0.33867 1.7836v0.04515q0 1.174-0.42898 2.0997-0.42898 0.90311-1.1966 1.5353-0.76764 0.6096-1.8288 0.94827-1.0612 0.31609-2.3481 0.31609z"/>
</g>
<g fill="#03254c" stroke-width=".26458px" aria-label="Mines">
<path d="m100.37 60.09h3.7479l4.1543 6.683 4.1543-6.683h3.7479v15.804h-3.4544v-10.318l-4.4478 6.7508h-0.0903l-4.4027-6.683v10.25h-3.4092z"/>
<path d="m119.75 63.793h3.4318v12.102h-3.4318zm-0.0903-4.3801h3.6124v3.048h-3.6124z"/>
<path d="m126.43 63.793h3.4318v1.7159q0.29351-0.38382 0.63217-0.72249 0.36125-0.36124 0.79023-0.63218 0.42897-0.27093 0.94826-0.42898 0.51929-0.15804 1.174-0.15804 1.9643 0 3.0254 1.1966 1.0837 1.1966 1.0837 3.2964v7.8345h-3.4318v-6.7508q0-1.2192-0.54187-1.8288-0.54186-0.63218-1.5353-0.63218-0.99342 0-1.5804 0.63218-0.56444 0.6096-0.56444 1.8288v6.7508h-3.4318z"/>
<path d="m148.44 68.895q-0.15805-1.1515-0.8128-1.8514-0.65476-0.72249-1.7385-0.72249-1.0837 0-1.7611 0.69991-0.65476 0.69991-0.85796 1.874zm-2.2126 7.27q-1.3547 0-2.5287-0.45156-1.1515-0.45156-2.0094-1.2869-0.83538-0.83538-1.3095-1.9643-0.47413-1.1515-0.47413-2.5513v-0.04515q0-1.2869 0.42897-2.4384 0.45156-1.1515 1.2418-2.0094 0.79022-0.85796 1.874-1.3547 1.1063-0.49671 2.4384-0.49671 1.5127 0 2.619 0.54187 1.1063 0.54187 1.8288 1.4676 0.74507 0.90311 1.0837 2.0997 0.36125 1.174 0.36125 2.461 0 0.2032-0.0226 0.42898 0 0.22578-0.0226 0.47413h-8.4215q0.24836 1.174 1.016 1.7836 0.79022 0.58702 1.9417 0.58702 0.85795 0 1.5353-0.29351 0.67733-0.29351 1.3998-0.94827l1.9643 1.7385q-0.85796 1.0612-2.0772 1.6708-1.2192 0.58702-2.8674 0.58702z"/>
<path d="m158.58 76.12q-1.2869 0-2.6416-0.42898-1.3321-0.45156-2.5513-1.3998l1.4676-2.2578q0.99343 0.72249 1.9643 1.0837 0.99342 0.36124 1.8514 0.36124 0.74507 0 1.0837-0.24836 0.36125-0.24836 0.36125-0.65476v-0.04516q0-0.27093-0.2032-0.47413t-0.56445-0.33867q-0.33866-0.15804-0.79022-0.29351-0.45156-0.13547-0.94827-0.29351-0.63217-0.18062-1.2869-0.42898-0.63218-0.27093-1.1515-0.67733-0.51929-0.42898-0.85795-1.0386-0.31609-0.6096-0.31609-1.4901v-0.04516q0-0.92569 0.33867-1.6256 0.36124-0.72249 0.94826-1.2192 0.6096-0.49671 1.3998-0.74507 0.8128-0.24836 1.7385-0.24836 1.1515 0 2.3255 0.38382 1.1966 0.36124 2.19 1.016l-1.3095 2.3707q-0.90311-0.51929-1.7611-0.8128-0.85795-0.31609-1.5127-0.31609-0.63218 0-0.94827 0.24836-0.31609 0.22578-0.31609 0.58702v0.04516q0 0.24836 0.2032 0.45156 0.2032 0.18062 0.54187 0.36124 0.33867 0.15804 0.76765 0.31609 0.45155 0.15804 0.94826 0.31609 0.63218 0.2032 1.2869 0.49671 0.65475 0.27093 1.174 0.67733t0.85796 0.99342q0.33866 0.58702 0.33866 1.4224v0.04516q0 1.016-0.36124 1.7611-0.33867 0.72249-0.97085 1.1966-0.63217 0.47413-1.4901 0.72249-0.83538 0.22578-1.8062 0.22578z"/>
</g>
<g fill="#f25c2c" aria-label="@">
<path d="m86.095 72.101q0.54187 0 1.016-0.24836 0.49671-0.24836 0.85796-0.67733 0.38382-0.45156 0.58702-1.0386 0.22578-0.58702 0.22578-1.2869 0-0.97084-0.58702-1.5353-0.58702-0.58702-1.5127-0.58702-0.54187 0-1.0386 0.24836-0.49671 0.24836-0.88053 0.67733-0.36124 0.4064-0.58702 0.99342-0.2032 0.58702-0.2032 1.2644 0 1.0612 0.58702 1.6256 0.58702 0.56444 1.5353 0.56444zm0.83538 7.4507q-2.1675 0-4.0188-0.79022-1.8288-0.76764-3.1835-2.1223-1.3547-1.3321-2.1223-3.1157-0.74507-1.7836-0.74507-3.8156t0.76764-3.8156q0.76764-1.8062 2.0997-3.1383 1.3321-1.3547 3.1383-2.1449t3.8834-0.79022q2.0772 0 3.8608 0.74507 1.8062 0.74507 3.1383 1.9868t2.0772 2.8674q0.76764 1.603 0.76764 3.3415 0 1.4224-0.36124 2.4836-0.33867 1.0612-0.94827 1.7836-0.6096 0.69991-1.445 1.0612-0.8128 0.33867-1.7385 0.33867-1.3772 0-2.2126-0.42898-0.8128-0.42898-1.2418-0.92569-0.58702 0.51929-1.4224 0.94827-0.8128 0.4064-1.9191 0.4064-0.85796 0-1.6256-0.29351-0.74507-0.31609-1.3095-0.88053-0.56444-0.56444-0.88053-1.3547-0.31609-0.8128-0.31609-1.8288 0-1.1966 0.4064-2.2352 0.42898-1.0386 1.1289-1.7836 0.69991-0.76764 1.603-1.1966 0.92569-0.45156 1.9191-0.45156 1.174 0 1.8965 0.45156 0.74507 0.42898 1.2192 1.0837l0.24836-1.1966 2.6642 0.42898-1.0612 6.0734q-0.04516 0.18062-0.06773 0.38382 0 0.18062 0 0.31609 0 0.6096 0.42898 1.016 0.42898 0.4064 1.2192 0.4064 0.6096 0 1.1289-0.29351t0.90311-0.88053q0.38382-0.58702 0.6096-1.445 0.22578-0.85796 0.22578-1.9868 0-1.5579-0.67733-3.0028-0.67733-1.4676-1.874-2.5739-1.174-1.1289-2.8222-1.7836-1.6256-0.67733-3.5221-0.67733-1.9191 0-3.5673 0.72249-1.6256 0.69991-2.8222 1.9191-1.1966 1.2192-1.874 2.8674-0.67733 1.6256-0.67733 3.477 0 1.874 0.67733 3.4996t1.874 2.8222q1.2192 1.2192 2.89 1.9191 1.6708 0.69991 3.6802 0.69991 1.6933 0 2.9577-0.38382 1.2869-0.38382 2.5739-1.1289l0.45156 0.72249q-1.3095 0.79022-2.7771 1.2418-1.445 0.45156-3.206 0.45156z" fill="#f25c2c" stroke-width=".26458px"/>
</g>
</g>
<g transform="matrix(.21563 0 0 .21563 105 107.97)">
<path d="m115.75 47.18c0 12.77-9.99 22.18-22.25 22.18s-22.25-9.41-22.25-22.18c0-12.86 9.99-22.18 22.25-22.18s22.25 9.32 22.25 22.18zm-9.74 0c0-7.98-5.79-13.44-12.51-13.44s-12.51 5.46-12.51 13.44c0 7.9 5.79 13.44 12.51 13.44s12.51-5.55 12.51-13.44z" fill="#ea4335"/>
<path d="m163.75 47.18c0 12.77-9.99 22.18-22.25 22.18s-22.25-9.41-22.25-22.18c0-12.85 9.99-22.18 22.25-22.18s22.25 9.32 22.25 22.18zm-9.74 0c0-7.98-5.79-13.44-12.51-13.44s-12.51 5.46-12.51 13.44c0 7.9 5.79 13.44 12.51 13.44s12.51-5.55 12.51-13.44z" fill="#fbbc05"/>
<path d="m209.75 26.34v39.82c0 16.38-9.66 23.07-21.08 23.07-10.75 0-17.22-7.19-19.66-13.07l8.48-3.53c1.51 3.61 5.21 7.87 11.17 7.87 7.31 0 11.84-4.51 11.84-13v-3.19h-0.34c-2.18 2.69-6.38 5.04-11.68 5.04-11.09 0-21.25-9.66-21.25-22.09 0-12.52 10.16-22.26 21.25-22.26 5.29 0 9.49 2.35 11.68 4.96h0.34v-3.61h9.25zm-8.56 20.92c0-7.81-5.21-13.52-11.84-13.52-6.72 0-12.35 5.71-12.35 13.52 0 7.73 5.63 13.36 12.35 13.36 6.63 0 11.84-5.63 11.84-13.36z" fill="#4285f4"/>
<path d="m225 3v65h-9.5v-65z" fill="#34a853"/>
<path d="m262.02 54.48 7.56 5.04c-2.44 3.61-8.32 9.83-18.48 9.83-12.6 0-22.01-9.74-22.01-22.18 0-13.19 9.49-22.18 20.92-22.18 11.51 0 17.14 9.16 18.98 14.11l1.01 2.52-29.65 12.28c2.27 4.45 5.8 6.72 10.75 6.72 4.96 0 8.4-2.44 10.92-6.14zm-23.27-7.98 19.82-8.23c-1.09-2.77-4.37-4.7-8.23-4.7-4.95 0-11.84 4.37-11.59 12.93z" fill="#ea4335"/>
<path d="m35.29 41.41v-9.41h31.71c0.31 1.64 0.47 3.58 0.47 5.68 0 7.06-1.93 15.79-8.15 22.01-6.05 6.3-13.78 9.66-24.02 9.66-18.98 0-34.94-15.46-34.94-34.44s15.96-34.44 34.94-34.44c10.5 0 17.98 4.12 23.6 9.49l-6.64 6.64c-4.03-3.78-9.49-6.72-16.97-6.72-13.86 0-24.7 11.17-24.7 25.03s10.84 25.03 24.7 25.03c8.99 0 14.11-3.61 17.39-6.89 2.66-2.66 4.41-6.46 5.1-11.65z" fill="#4285f4"/>
</g>
<g fill="#03254c" stroke-width=".28821px" aria-label="Sponsored by">
<path d="m47.587 113.4q-0.67633 0-1.3273-0.22826-0.65097-0.23672-1.1836-0.71861l0.76933-0.9215q0.4058 0.32971 0.82851 0.52416 0.43116 0.19444 0.93841 0.19444 0.4058 0 0.62561-0.14372 0.22826-0.15217 0.22826-0.41425v-0.0169q0-0.12681-0.05072-0.21981-0.04227-0.10145-0.17754-0.18599-0.12681-0.0845-0.36353-0.16908-0.22826-0.0845-0.60025-0.17754-0.44807-0.1099-0.8116-0.24517-0.36353-0.13527-0.61715-0.32971-0.25362-0.2029-0.39735-0.4988-0.13527-0.2959-0.13527-0.73551v-0.0169q0-0.4058 0.15218-0.72706 0.15218-0.32971 0.42271-0.56643 0.27899-0.23672 0.65942-0.36353t0.83696-0.12681q0.65097 0 1.192 0.19444 0.54952 0.19445 1.006 0.55798l-0.67633 0.98068q-0.39735-0.27053-0.77778-0.42271-0.38044-0.16062-0.76088-0.16062t-0.57488 0.15217q-0.18599 0.14372-0.18599 0.36353v0.0169q0 0.14372 0.05072 0.25362 0.05918 0.10145 0.2029 0.18599 0.14372 0.0846 0.38889 0.16063 0.25363 0.0761 0.63406 0.17754 0.44807 0.11836 0.79469 0.27054 0.35508 0.14372 0.59179 0.35507 0.24517 0.2029 0.36353 0.48189 0.12681 0.27899 0.12681 0.66788v0.0169q0 0.43961-0.16063 0.78623-0.16063 0.33817-0.44807 0.57489-0.28744 0.22826-0.68479 0.35507-0.39735 0.11836-0.87923 0.11836z"/>
<path d="m53.13 112.31q0.22826 0 0.42271-0.0845 0.2029-0.093 0.35508-0.25362 0.15218-0.16909 0.23672-0.39735 0.093-0.22826 0.093-0.5157v-0.0169q0-0.27899-0.093-0.50725-0.08454-0.23672-0.23672-0.39735-0.15218-0.16908-0.35508-0.25362-0.19445-0.093-0.42271-0.093-0.22826 0-0.43116 0.093-0.19445 0.0845-0.34662 0.25362-0.14372 0.16063-0.23672 0.39735-0.08454 0.22826-0.08454 0.50725v0.0169q0 0.27898 0.08454 0.5157 0.093 0.22826 0.23672 0.39735 0.15218 0.16063 0.34662 0.25362 0.2029 0.0845 0.43116 0.0845zm-2.3672-3.5254h1.285v0.65097q0.23672-0.32125 0.56643-0.52415 0.33817-0.21136 0.84542-0.21136 0.39735 0 0.76933 0.15218 0.37198 0.15217 0.65943 0.45652 0.28744 0.2959 0.45652 0.73552 0.17754 0.43116 0.17754 0.99759v0.0169q0 0.56643-0.17754 1.006-0.16908 0.43117-0.45652 0.73552-0.27899 0.29589-0.65097 0.44807-0.37198 0.15217-0.77778 0.15217-0.5157 0-0.85387-0.2029-0.32971-0.2029-0.55798-0.47343v1.9445h-1.285z"/>
<path d="m58.716 112.31q0.27899 0 0.49034-0.093 0.21981-0.10145 0.37198-0.27054 0.15218-0.16908 0.22826-0.38889 0.08454-0.22826 0.08454-0.48189v-0.0169q0-0.25363-0.08454-0.47344-0.08454-0.22826-0.24517-0.39734-0.16063-0.17754-0.38044-0.27899-0.21981-0.10145-0.48189-0.10145-0.27899 0-0.4988 0.10145-0.21135 0.093-0.36353 0.26208t-0.23672 0.39734q-0.07609 0.21981-0.07609 0.47344v0.0169q0 0.25362 0.08454 0.48188 0.08454 0.21981 0.24517 0.39735 0.16063 0.16908 0.37198 0.27053 0.21981 0.10145 0.49034 0.10145zm-0.01691 1.1075q-0.52416 0-0.97223-0.17754-0.44807-0.18599-0.77778-0.49879-0.32126-0.32126-0.50725-0.74397-0.18599-0.43116-0.18599-0.92151v-0.0169q0-0.49035 0.18599-0.91305 0.18599-0.43117 0.5157-0.75243 0.32971-0.32125 0.77778-0.50725 0.44807-0.18599 0.98068-0.18599 0.52416 0 0.97223 0.18599 0.44807 0.17754 0.76933 0.4988 0.32971 0.3128 0.5157 0.74397 0.18599 0.42271 0.18599 0.91305v0.0169q0 0.49034-0.18599 0.9215-0.18599 0.42271-0.5157 0.74397-0.32971 0.32126-0.77778 0.50725t-0.98068 0.18599z"/>
<path d="m62.09 108.79h1.285v0.64252q0.1099-0.14372 0.23672-0.27053 0.13527-0.13527 0.2959-0.23672t0.35508-0.16063q0.19445-0.0592 0.43962-0.0592 0.73551 0 1.1329 0.44807 0.4058 0.44807 0.4058 1.2343v2.9336h-1.285v-2.5278q0-0.45652-0.2029-0.68479-0.2029-0.23671-0.57488-0.23671-0.37198 0-0.59179 0.23671-0.21135 0.22827-0.21135 0.68479v2.5278h-1.285z"/>
<path d="m68.947 113.4q-0.48189 0-0.98914-0.16063-0.4988-0.16908-0.95532-0.52416l0.54952-0.84541q0.37198 0.27053 0.73551 0.4058 0.37198 0.13526 0.69324 0.13526 0.27899 0 0.4058-0.093 0.13527-0.093 0.13527-0.24517v-0.0169q0-0.10145-0.07609-0.17754-0.07609-0.0761-0.21136-0.12681-0.12681-0.0592-0.2959-0.10991-0.16908-0.0507-0.35508-0.1099-0.23672-0.0676-0.48189-0.16063-0.23672-0.10145-0.43116-0.25362-0.19445-0.16063-0.32126-0.3889-0.11836-0.22826-0.11836-0.55797v-0.0169q0-0.34662 0.12681-0.6087 0.13527-0.27053 0.35508-0.45653 0.22826-0.18599 0.52416-0.27898 0.30435-0.093 0.65097-0.093 0.43116 0 0.87078 0.14372 0.44807 0.13527 0.82006 0.38044l-0.49034 0.88769q-0.33817-0.19445-0.65943-0.30435-0.32126-0.11836-0.56643-0.11836-0.23672 0-0.35508 0.093-0.11836 0.0845-0.11836 0.21981v0.0169q0 0.093 0.07609 0.16908 0.07609 0.0676 0.2029 0.13527 0.12681 0.0592 0.28744 0.11836 0.16908 0.0592 0.35508 0.11836 0.23672 0.0761 0.48189 0.18599 0.24517 0.10145 0.43962 0.25363 0.19445 0.15217 0.32126 0.37198 0.12681 0.21981 0.12681 0.53261v0.0169q0 0.38044-0.13527 0.65943-0.12681 0.27053-0.36353 0.44807-0.23672 0.17753-0.55798 0.27053-0.3128 0.0845-0.67633 0.0845z"/>
<path d="m73.841 112.31q0.27899 0 0.49034-0.093 0.21981-0.10145 0.37198-0.27054 0.15218-0.16908 0.22826-0.38889 0.08454-0.22826 0.08454-0.48189v-0.0169q0-0.25363-0.08454-0.47344-0.08454-0.22826-0.24517-0.39734-0.16063-0.17754-0.38044-0.27899-0.21981-0.10145-0.48189-0.10145-0.27899 0-0.4988 0.10145-0.21135 0.093-0.36353 0.26208t-0.23672 0.39734q-0.07609 0.21981-0.07609 0.47344v0.0169q0 0.25362 0.08454 0.48188 0.08454 0.21981 0.24517 0.39735 0.16063 0.16908 0.37198 0.27053 0.21981 0.10145 0.49034 0.10145zm-0.01691 1.1075q-0.52416 0-0.97223-0.17754-0.44807-0.18599-0.77778-0.49879-0.32126-0.32126-0.50725-0.74397-0.18599-0.43116-0.18599-0.92151v-0.0169q0-0.49035 0.18599-0.91305 0.18599-0.43117 0.5157-0.75243 0.32971-0.32125 0.77778-0.50725 0.44807-0.18599 0.98068-0.18599 0.52416 0 0.97223 0.18599 0.44807 0.17754 0.76933 0.4988 0.32971 0.3128 0.5157 0.74397 0.18599 0.42271 0.18599 0.91305v0.0169q0 0.49034-0.18599 0.9215-0.18599 0.42271-0.5157 0.74397-0.32971 0.32126-0.77778 0.50725-0.44807 0.18599-0.98068 0.18599z"/>
<path d="m77.215 108.79h1.285v0.91305q0.19445-0.46498 0.53261-0.74396 0.33817-0.27899 0.91305-0.25363v1.3442h-0.06763q-0.64252 0-1.0145 0.38889-0.36353 0.38889-0.36353 1.2089v1.6739h-1.285z"/>
<path d="m83.724 110.7q-0.05918-0.43117-0.30435-0.69325-0.24517-0.27053-0.65097-0.27053-0.4058 0-0.65943 0.26208-0.24517 0.26208-0.32126 0.7017zm-0.82851 2.7222q-0.50725 0-0.94687-0.16908-0.43116-0.16909-0.75242-0.48189-0.3128-0.31281-0.49034-0.73551-0.17754-0.43117-0.17754-0.95533v-0.0169q0-0.48189 0.16063-0.91305 0.16908-0.43117 0.46498-0.75243 0.2959-0.32125 0.7017-0.50725 0.41426-0.18599 0.91305-0.18599 0.56643 0 0.98068 0.2029 0.41425 0.2029 0.68479 0.54952 0.27899 0.33817 0.4058 0.78624 0.13527 0.43962 0.13527 0.92151 0 0.0761-0.0085 0.16063 0 0.0845-0.0085 0.17753h-3.1533q0.093 0.43962 0.38044 0.66788 0.2959 0.21981 0.72706 0.21981 0.32126 0 0.57488-0.1099 0.25363-0.10991 0.52416-0.35508l0.73551 0.65097q-0.32126 0.39735-0.77778 0.62561-0.45652 0.21981-1.0737 0.21981z"/>
<path d="m88.123 112.31q0.22826 0 0.42271-0.0845 0.2029-0.093 0.34662-0.25362 0.15218-0.16909 0.23672-0.39735 0.093-0.23672 0.093-0.5157v-0.0169q0-0.27899-0.093-0.50725-0.08454-0.23672-0.23672-0.39735-0.14372-0.16908-0.34662-0.25362-0.19445-0.093-0.42271-0.093t-0.43116 0.093q-0.19445 0.0845-0.34662 0.25362-0.15218 0.16063-0.24517 0.38889-0.08454 0.22827-0.08454 0.51571v0.0169q0 0.27898 0.08454 0.5157 0.093 0.22826 0.24517 0.39735 0.15218 0.16063 0.34662 0.25362 0.2029 0.0845 0.43116 0.0845zm-0.32971 1.0906q-0.39735 0-0.76933-0.15217-0.37198-0.15218-0.65942-0.44807-0.28744-0.30435-0.46498-0.73552-0.16908-0.43961-0.16908-1.006v-0.0169q0-0.56643 0.16908-0.99759 0.17754-0.43962 0.45653-0.73552 0.28744-0.30435 0.65942-0.45652 0.37198-0.15218 0.77778-0.15218 0.5157 0 0.84542 0.2029 0.33817 0.2029 0.56643 0.47344v-2.2319h1.285v6.1716h-1.285v-0.65097q-0.23672 0.32126-0.57488 0.53261-0.32971 0.2029-0.83696 0.2029z"/>
<path d="m96.557 112.31q0.22826 0 0.42271-0.0845 0.2029-0.093 0.35508-0.25362 0.15218-0.16909 0.23672-0.39735 0.093-0.22826 0.093-0.5157v-0.0169q0-0.27899-0.093-0.50725-0.08454-0.23672-0.23672-0.39735-0.15218-0.16908-0.35508-0.25362-0.19445-0.093-0.42271-0.093-0.22826 0-0.43116 0.093-0.19445 0.0845-0.34662 0.25362-0.14372 0.16063-0.23672 0.39735-0.08454 0.22826-0.08454 0.50725v0.0169q0 0.27898 0.08454 0.5157 0.093 0.22826 0.23672 0.39735 0.15218 0.16063 0.34662 0.25362 0.2029 0.0845 0.43116 0.0845zm0.32971 1.0906q-0.5157 0-0.85387-0.2029-0.32971-0.2029-0.55798-0.47343v0.59179h-1.285v-6.1716h1.285v2.2911q0.23672-0.32125 0.56643-0.52415 0.33817-0.21136 0.84542-0.21136 0.39735 0 0.76933 0.15218 0.37198 0.15217 0.65943 0.45652 0.28744 0.2959 0.45652 0.73552 0.17754 0.43116 0.17754 0.99759v0.0169q0 0.56643-0.17754 1.006-0.16908 0.43117-0.45652 0.73552-0.27899 0.29589-0.65097 0.44807-0.37198 0.15217-0.77778 0.15217z"/>
<path d="m100.98 114.69q-0.35507 0-0.62561-0.0845-0.27053-0.0845-0.5157-0.22826l0.43116-0.92996q0.12681 0.0761 0.27053 0.12681 0.15218 0.0507 0.27899 0.0507 0.16908 0 0.26208-0.0676 0.10145-0.0592 0.18599-0.22826l-1.7754-4.5484h1.3611l1.0314 3.0858 0.98914-3.0858h1.3358l-1.7416 4.6413q-0.12681 0.34663-0.27053 0.58334-0.14372 0.24517-0.32126 0.39735-0.16908 0.15217-0.38889 0.21981-0.21981 0.0676-0.50725 0.0676z"/>
</g>
</g>
</svg>
