<?xml version="1.0" encoding="UTF-8" standalone="no"?>
<!-- Created with Inkscape (http://www.inkscape.org/) -->

<svg
   xmlns:dc="http://purl.org/dc/elements/1.1/"
   xmlns:cc="http://creativecommons.org/ns#"
   xmlns:rdf="http://www.w3.org/1999/02/22-rdf-syntax-ns#"
   xmlns:svg="http://www.w3.org/2000/svg"
   xmlns="http://www.w3.org/2000/svg"
   xmlns:sodipodi="http://sodipodi.sourceforge.net/DTD/sodipodi-0.dtd"
   xmlns:inkscape="http://www.inkscape.org/namespaces/inkscape"
   width="118.27295mm"
   height="66.909111mm"
   viewBox="0 0 118.27295 66.909111"
   version="1.1"
   id="svg8"
   inkscape:version="0.92.2 5c3e80d, 2017-08-06"
   sodipodi:docname="logo-w.svg">
  <defs
     id="defs2" />
  <sodipodi:namedview
     id="base"
     pagecolor="#ffffff"
     bordercolor="#666666"
     borderopacity="1.0"
     inkscape:pageopacity="0.0"
     inkscape:pageshadow="2"
     inkscape:zoom="3.9548909"
     inkscape:cx="288.24833"
     inkscape:cy="101.0287"
     inkscape:document-units="mm"
     inkscape:current-layer="layer1"
     showgrid="false"
     inkscape:snap-text-baseline="true"
     inkscape:window-width="3840"
     inkscape:window-height="2102"
     inkscape:window-x="0"
     inkscape:window-y="28"
     inkscape:window-maximized="0"
     inkscape:pagecheckerboard="true" />
  <metadata
     id="metadata5">
    <rdf:RDF>
      <cc:Work
         rdf:about="">
        <dc:format>image/svg+xml</dc:format>
        <dc:type
           rdf:resource="http://purl.org/dc/dcmitype/StillImage" />
        <dc:title />
      </cc:Work>
    </rdf:RDF>
  </metadata>
  <g
     inkscape:label="Layer 1"
     inkscape:groupmode="layer"
     id="layer1"
     transform="translate(-44.94621,-56.536056)">
    <g
       aria-label="PUZZLE"
       style="font-style:normal;font-weight:normal;font-size:10.58333302px;line-height:125%;font-family:sans-serif;letter-spacing:0px;word-spacing:0px;fill:#ffffff;fill-opacity:1;stroke:none;stroke-width:0.26458332px;stroke-linecap:butt;stroke-linejoin:miter;stroke-opacity:1"
       id="text4571">
      <path
         d="m 45.16732,90.026986 c -0.03563,4.881386 -0.03563,9.121422 -0.07126,13.610874 0,0.99765 0.712611,1.639 1.995311,1.639 1.140177,0 2.066572,-0.49882 2.066572,-1.78152 0,-2.52977 -0.07126,-4.631977 -0.07126,-6.80544 h 1.140177 c 1.745898,0 4.703234,0 5.914672,-0.320675 3.491795,-0.819503 5.77215,-4.204406 5.843411,-7.589308 0.03563,-3.028598 -1.140177,-5.09517 -3.135488,-6.4135 -1.674636,-1.104547 -3.8481,-1.603375 -6.128456,-1.603375 -1.92405,0.03563 -4.382558,0.03563 -5.487105,0.142522 -1.068917,0.07126 -1.817158,0.64135 -2.066572,1.567744 -0.178153,0.962025 -0.07126,2.209095 -0.07126,3.278011 0.03563,1.068917 0.07126,3.17112 0.07126,4.275667 z m 3.954991,0.142522 c 0,-2.280355 -0.03563,-4.48945 -0.03563,-5.843411 0.748241,-0.03563 2.672291,-0.03563 3.420533,-0.03563 1.425222,0 2.5654,0.142522 3.598686,0.67698 1.140178,0.60572 2.030942,1.745897 1.995311,3.598686 -0.03563,1.852789 -1.104547,3.8481 -3.064228,4.311297 -0.962025,0.249414 -2.351616,0.285045 -4.168775,0.249414 h -1.710266 c 0,-1.033286 -0.03563,-1.995311 -0.03563,-2.957336 z"
         style="font-style:normal;font-variant:normal;font-weight:normal;font-stretch:normal;font-size:35.6305542px;font-family:Linotte;-inkscape-font-specification:Linotte;fill:#ffffff;fill-opacity:1;stroke-width:0.26458332px"
         id="path877" />
      <path
         d="m 65.554121,95.122155 c 0,6.484765 3.705578,10.154705 9.442097,10.154705 6.235347,0 9.834033,-4.27566 9.834033,-11.045469 L 84.75899,83.150289 c 0,-1.639005 -0.60572,-2.280355 -1.959681,-2.280355 -1.211438,0 -2.030941,0.570088 -2.030941,1.888419 0,3.669947 0.142522,8.765116 0.03563,12.292541 -0.03563,3.741208 -2.173463,6.556026 -5.558366,6.556026 -3.598686,0 -5.736519,-2.066576 -5.736519,-6.520395 0,-2.921706 -0.03563,-7.731831 0.03563,-12.114389 0,-1.425222 -0.534458,-2.030941 -2.066572,-2.030941 -1.211439,0 -1.888419,0.64135 -1.888419,1.95968 0,3.028597 -0.03563,7.803091 -0.03563,12.22128 z"
         style="font-style:normal;font-variant:normal;font-weight:normal;font-stretch:normal;font-size:35.6305542px;font-family:Linotte;-inkscape-font-specification:Linotte;fill:#ffffff;fill-opacity:1;stroke-width:0.26458332px"
         id="path879" />
      <path
         d="m 90.406433,84.539881 c 2.814813,0 7.339894,-0.03563 10.546647,-0.03563 l -1.532117,2.351617 c -2.066572,2.886075 -4.240036,5.985933 -6.841066,9.620249 l -2.244725,3.099858 c -0.926395,1.247066 -1.532114,2.280356 -1.745898,3.349276 -0.03563,0.3563 0,0.64135 0.07126,0.92639 0.213783,0.99766 1.31833,1.21144 2.209094,1.21144 4.168775,0 8.729486,0 13.1833,-0.0356 1.71027,0 2.17347,-0.89076 2.17347,-1.78153 0,-0.92639 -0.4632,-1.88842 -1.85279,-1.88842 -2.06657,0 -5.629628,0.17815 -10.90295,0.17815 0.570089,-0.8195 1.175809,-1.745892 1.817159,-2.672287 3.171119,-4.667602 5.807781,-8.40881 8.586961,-12.328171 l 1.17581,-1.781528 c 0.57009,-0.819503 0.92639,-1.567744 0.92639,-2.173464 0,-1.104547 -0.71261,-1.745897 -1.95968,-1.745897 -1.88841,0 -4.240032,0.07126 -5.985929,0.07126 h -7.482416 c -1.2827,0 -1.888419,0.748242 -1.888419,1.888419 0,1.068917 0.64135,1.745898 1.745897,1.745898 z"
         style="font-style:normal;font-variant:normal;font-weight:normal;font-stretch:normal;font-size:35.6305542px;font-family:Linotte;-inkscape-font-specification:Linotte;fill:#ffffff;fill-opacity:1;stroke-width:0.26458332px"
         id="path881" />
      <path
         d="m 110.23984,84.539881 c 2.81482,0 7.3399,-0.03563 10.54665,-0.03563 l -1.53211,2.351617 c -2.06658,2.886075 -4.24004,5.985933 -6.84107,9.620249 l -2.24473,3.099858 c -0.92639,1.247066 -1.53211,2.280356 -1.74589,3.349276 -0.0356,0.3563 0,0.64135 0.0713,0.92639 0.21378,0.99766 1.31833,1.21144 2.20909,1.21144 4.16878,0 8.72949,0 13.18331,-0.0356 1.71026,0 2.17346,-0.89076 2.17346,-1.78153 0,-0.92639 -0.4632,-1.88842 -1.85279,-1.88842 -2.06657,0 -5.62963,0.17815 -10.90295,0.17815 0.57009,-0.8195 1.17581,-1.745892 1.81716,-2.672287 3.17112,-4.667602 5.80778,-8.40881 8.58696,-12.328171 l 1.17581,-1.781528 c 0.57009,-0.819503 0.9264,-1.567744 0.9264,-2.173464 0,-1.104547 -0.71261,-1.745897 -1.95968,-1.745897 -1.88842,0 -4.24004,0.07126 -5.98594,0.07126 h -7.48241 c -1.2827,0 -1.88842,0.748242 -1.88842,1.888419 0,1.068917 0.64135,1.745898 1.74589,1.745898 z"
         style="font-style:normal;font-variant:normal;font-weight:normal;font-stretch:normal;font-size:35.6305542px;font-family:Linotte;-inkscape-font-specification:Linotte;fill:#ffffff;fill-opacity:1;stroke-width:0.26458332px"
         id="path883" />
      <path
         d="m 129.8951,82.5802 c 0,2.458508 0.0356,6.876697 0.0356,10.119078 -0.0356,2.992966 -0.17815,6.021563 -0.17815,8.765112 v 1.35396 c 0.17815,1.95969 0.96203,2.38725 3.63432,2.28036 1.46085,-0.0713 3.20675,-0.0713 5.02391,-0.0713 l 4.06188,0.0356 c 1.31833,0 1.85279,-0.85513 1.85279,-2.03094 0,-0.96203 -0.4632,-1.67464 -1.7459,-1.67464 l -5.09517,0.17815 c -0.85513,0.0356 -2.77918,0.0356 -3.77684,0.0356 0,-0.35631 0.0356,-0.9264 0.0356,-4.810129 0,-2.173464 0.0356,-4.45382 0.0356,-6.662914 0.0356,-2.60103 0.1069,-5.16643 0.1069,-7.518047 -0.0356,-1.389591 -0.81951,-1.817158 -1.85279,-1.817158 -1.14018,0 -2.10221,0.605719 -2.13784,1.817158 z"
         style="font-style:normal;font-variant:normal;font-weight:normal;font-stretch:normal;font-size:35.6305542px;font-family:Linotte;-inkscape-font-specification:Linotte;fill:#ffffff;fill-opacity:1;stroke-width:0.26458332px"
         id="path885" />
      <path
         d="m 147.9225,82.687092 c 0,2.921705 -0.0356,5.77215 -0.0356,8.658224 0,5.665259 -0.14252,10.047814 -0.14252,10.225974 v 1.31833 c 0.10689,1.95968 0.85513,2.24472 3.77683,2.24472 4.27567,0 7.19738,0.0713 9.58462,0 1.63901,-0.0356 1.99532,-0.92639 1.99532,-1.88842 0,-1.06892 -0.4632,-1.7459 -1.56775,-1.7459 -0.57009,0 -1.03329,0.0356 -1.7459,0.0713 -3.63431,0.0356 -6.4135,0.0713 -8.12376,0.0356 0,-1.46086 0.0356,-3.064232 0.0356,-4.525084 0,-0.748242 0,-1.567745 0.0356,-2.280356 1.42522,0 6.02156,-0.03563 7.58931,-0.03563 1.42522,0 1.85279,-0.712611 1.85279,-1.674636 0.0356,-1.496484 -0.81951,-1.710267 -2.17347,-1.710267 -1.35396,0.03563 -4.70323,0.106892 -5.77215,0.106892 h -1.42522 v -0.463198 l 0.0356,-3.349272 v -3.420533 h 1.56774 c 2.92171,0 6.66292,0.03563 8.23066,-0.03563 0.9264,-0.213784 1.14018,-1.068917 1.10455,-1.781528 0,-0.926394 -0.57009,-1.603375 -1.92405,-1.603375 -1.7459,0 -4.34693,0.07126 -8.80075,0.07126 -0.53446,-0.03563 -1.17581,-0.03563 -1.56774,-0.03563 -1.46085,0 -2.45851,0.463197 -2.52977,1.817158 z"
         style="font-style:normal;font-variant:normal;font-weight:normal;font-stretch:normal;font-size:35.6305542px;font-family:Linotte;-inkscape-font-specification:Linotte;fill:#ffffff;fill-opacity:1;stroke-width:0.26458332px"
         id="path887" />
    </g>
    <g
       aria-label="COMPETITION"
       style="font-style:normal;font-weight:normal;font-size:10.58333302px;line-height:125%;font-family:sans-serif;letter-spacing:0px;word-spacing:0px;fill:#ffffff;fill-opacity:1;stroke:none;stroke-width:0.26458332px;stroke-linecap:butt;stroke-linejoin:miter;stroke-opacity:1"
       id="text4589">
      <path
         d="m 53.743959,111.09177 c -0.64823,-0.27781 -1.722438,-0.50006 -2.704042,-0.51858 -2.981855,-0.0185 -6.056313,2.50031 -6.093355,6.63045 -0.03704,3.9079 2.852209,6.18596 5.815542,6.223 1.963209,0.0185 4.074584,-0.87048 4.093105,-1.778 0,-0.50006 -0.296334,-1.0742 -0.814917,-1.0742 -0.370417,0 -0.518583,0.14816 -0.814917,0.29633 -0.592667,0.35189 -1.407583,0.62971 -2.259542,0.61119 -2.166937,0 -3.981979,-1.87061 -3.963458,-4.3524 0.01852,-2.79665 1.907646,-4.68577 3.889375,-4.68577 0.870479,0 1.55575,0.22225 2.074333,0.4445 0.259292,0.12965 0.500063,0.24077 0.814917,0.24077 0.611188,0.0185 0.870479,-0.4445 0.889,-1.00012 0,-0.53711 -0.425979,-0.81492 -0.926041,-1.03717 z"
         style="font-style:normal;font-variant:normal;font-weight:normal;font-stretch:normal;font-size:18.52083397px;font-family:Linotte;-inkscape-font-specification:Linotte;fill:#ffffff;fill-opacity:1;stroke-width:0.26458332px"
         id="path854" />
      <path
         d="m 62.34457,110.55466 c -3.018896,-0.037 -6.111875,2.55588 -6.111875,6.72307 0,3.81529 3.000375,6.16743 6.056313,6.16743 3.556,0 6.148917,-2.94481 6.148917,-6.61193 0,-3.70417 -2.833688,-6.27857 -6.093355,-6.27857 z m 4.037542,6.31561 c 0.01852,2.44475 -1.740958,4.63021 -3.981979,4.63021 -2.259542,0 -4.111625,-1.74096 -4.111625,-4.40796 0,-2.70404 1.796521,-4.64873 3.889375,-4.64873 2.185458,0 4.185708,1.74096 4.204229,4.42648 z"
         style="font-style:normal;font-variant:normal;font-weight:normal;font-stretch:normal;font-size:18.52083397px;font-family:Linotte;-inkscape-font-specification:Linotte;fill:#ffffff;fill-opacity:1;stroke-width:0.26458332px"
         id="path856" />
      <path
         d="m 73.163341,114.09214 c 0.537105,1.55575 1.889126,5.53773 2.741084,7.88988 0.22225,0.50006 0.388937,0.92604 1.055687,0.94456 0.685271,0.0185 1.055688,-0.40746 1.240896,-0.87048 l 3.000375,-7.85283 c 0.259292,2.667 0.518584,5.66737 0.814917,8.31585 0.07408,0.55563 0.4445,0.85196 1.018646,0.85196 0.592667,0 1.074208,-0.35189 1.018646,-1.05569 -0.592667,-4.74133 -1.166813,-10.27906 -1.444625,-11.27918 -0.148167,-0.27782 -0.481542,-0.38894 -0.851959,-0.40746 -0.166687,-0.0185 -0.370416,0 -0.537104,0.0185 -0.574146,0.16669 -0.796396,0.74083 -0.963083,1.11125 -1.481667,3.94494 -2.166938,5.83406 -3.037417,7.92692 l -0.166687,0.4445 c -0.03704,-0.18521 -0.148167,-0.48155 -0.259292,-0.7964 -0.722313,-2.11138 -1.778,-5.16731 -2.667,-7.6491 -0.203729,-0.59267 -0.500063,-1.01865 -1.11125,-1.01865 -0.518584,-0.0185 -1.203854,0.18521 -1.352021,0.72231 -0.240771,1.75948 -1.092729,8.26029 -1.518708,10.89025 -0.09261,0.61119 0.333375,1.07421 0.981604,1.07421 0.555625,0 0.926041,-0.22225 1.037166,-0.83344 0.129646,-0.85196 0.66675,-5.8711 1.000125,-8.42698 z"
         style="font-style:normal;font-variant:normal;font-weight:normal;font-stretch:normal;font-size:18.52083397px;font-family:Linotte;-inkscape-font-specification:Linotte;fill:#ffffff;fill-opacity:1;stroke-width:0.26458332px"
         id="path858" />
      <path
         d="m 86.507023,115.44416 c -0.01852,2.53736 -0.01852,4.74134 -0.03704,7.07496 0,0.51859 0.370417,0.85196 1.037167,0.85196 0.592667,0 1.074208,-0.25929 1.074208,-0.92604 0,-1.31498 -0.03704,-2.40771 -0.03704,-3.53748 h 0.592666 c 0.907521,0 2.444751,0 3.074459,-0.16669 1.815042,-0.42598 3.000375,-2.18546 3.037417,-3.94493 0.01852,-1.57428 -0.592667,-2.64848 -1.629834,-3.33375 -0.870479,-0.57415 -2.00025,-0.83344 -3.185583,-0.83344 -1.000125,0.0185 -2.278063,0.0185 -2.852209,0.0741 -0.555625,0.037 -0.944562,0.33338 -1.074208,0.81492 -0.0926,0.50006 -0.03704,1.14829 -0.03704,1.70391 0.01852,0.55563 0.03704,1.64836 0.03704,2.2225 z m 2.055813,0.0741 c 0,-1.18534 -0.01852,-2.33363 -0.01852,-3.03742 0.388937,-0.0185 1.389062,-0.0185 1.778,-0.0185 0.740833,0 1.3335,0.0741 1.870604,0.3519 0.592667,0.31485 1.055688,0.90752 1.037167,1.8706 -0.01852,0.96308 -0.574146,2.00025 -1.592792,2.24102 -0.500062,0.12965 -1.222375,0.14817 -2.166938,0.12965 h -0.889 c 0,-0.53711 -0.01852,-1.03717 -0.01852,-1.53723 z"
         style="font-style:normal;font-variant:normal;font-weight:normal;font-stretch:normal;font-size:18.52083397px;font-family:Linotte;-inkscape-font-specification:Linotte;fill:#ffffff;fill-opacity:1;stroke-width:0.26458332px"
         id="path860" />
      <path
         d="m 97.270812,111.62887 c 0,1.51871 -0.01852,3.00038 -0.01852,4.50057 0,2.94481 -0.07408,5.22287 -0.07408,5.31547 v 0.68528 c 0.05556,1.01864 0.4445,1.16681 1.963208,1.16681 2.222504,0 3.741204,0.037 4.982104,0 0.85196,-0.0185 1.03717,-0.48154 1.03717,-0.98161 0,-0.55562 -0.24077,-0.90752 -0.81492,-0.90752 -0.29633,0 -0.5371,0.0185 -0.90752,0.037 -1.88913,0.0185 -3.33375,0.0371 -4.222751,0.0185 0,-0.75936 0.01852,-1.5928 0.01852,-2.35215 0,-0.38894 0,-0.81492 0.01852,-1.18533 0.740833,0 3.130019,-0.0185 3.944939,-0.0185 0.74083,0 0.96308,-0.37042 0.96308,-0.87048 0.0185,-0.77788 -0.42598,-0.889 -1.12977,-0.889 -0.70379,0.0185 -2.44475,0.0556 -3.00037,0.0556 h -0.740837 v -0.24077 l 0.01852,-1.74096 v -1.778 h 0.814917 c 1.51871,0 3.4634,0.0185 4.27831,-0.0185 0.48154,-0.11113 0.59267,-0.55563 0.57415,-0.92604 0,-0.48154 -0.29633,-0.83344 -1.00013,-0.83344 -0.90752,0 -2.25954,0.037 -4.574642,0.037 -0.277813,-0.0185 -0.611188,-0.0185 -0.814917,-0.0185 -0.759354,0 -1.277938,0.24077 -1.314979,0.94456 z"
         style="font-style:normal;font-variant:normal;font-weight:normal;font-stretch:normal;font-size:18.52083397px;font-family:Linotte;-inkscape-font-specification:Linotte;fill:#ffffff;fill-opacity:1;stroke-width:0.26458332px"
         id="path862" />
      <path
         d="m 111.28877,110.70283 c -3.18558,0 -3.83381,-0.0185 -4.31536,-0.0185 -0.64822,0.0185 -0.90752,0.42598 -0.90752,0.90752 0,0.57415 0.2593,0.94456 0.87048,0.94456 1.55575,0 2.50032,0 3.22263,-0.0185 0.0185,1.09273 0.037,1.90765 0.037,2.98186 l -0.037,6.81566 c -0.0185,0.75936 0.35189,1.01865 0.96308,1.01865 0.72231,0 1.11125,-0.3519 1.11125,-1.09273 -0.0556,-5.22287 -0.0741,-6.96383 -0.0741,-8.7974 v -0.92604 h 3.07446 c 0.72231,0 0.9816,-0.35189 0.9816,-1.00012 0,-0.57415 -0.31485,-0.85196 -0.92604,-0.85196 -0.81492,0 -3.35227,0.037 -4.0005,0.037 z"
         style="font-style:normal;font-variant:normal;font-weight:normal;font-stretch:normal;font-size:18.52083397px;font-family:Linotte;-inkscape-font-specification:Linotte;fill:#ffffff;fill-opacity:1;stroke-width:0.26458332px"
         id="path864" />
      <path
         d="m 118.10849,115.64789 -0.037,5.07471 c 0,0.57415 -0.0185,1.18534 -0.0185,1.64836 0,0.66675 0.46303,0.96308 1.05569,0.96308 0.59267,0 1.05569,-0.27781 1.03717,-1.01865 l -0.0185,-3.38931 c 0,-0.68527 0.0185,-2.09285 0.0185,-2.92629 v -4.50056 c 0,-0.57415 -0.42598,-0.889 -1.00013,-0.889 -0.57414,0 -1.0742,0.27781 -1.0742,0.9816 0.0185,1.61131 0.037,2.98186 0.037,4.05606 z"
         style="font-style:normal;font-variant:normal;font-weight:normal;font-stretch:normal;font-size:18.52083397px;font-family:Linotte;-inkscape-font-specification:Linotte;fill:#ffffff;fill-opacity:1;stroke-width:0.26458332px"
         id="path866" />
      <path
         d="m 127.20511,110.70283 c -3.18558,0 -3.83381,-0.0185 -4.31535,-0.0185 -0.64823,0.0185 -0.90752,0.42598 -0.90752,0.90752 0,0.57415 0.25929,0.94456 0.87048,0.94456 1.55575,0 2.50031,0 3.22262,-0.0185 0.0185,1.09273 0.037,1.90765 0.037,2.98186 l -0.037,6.81566 c -0.0185,0.75936 0.3519,1.01865 0.96309,1.01865 0.72231,0 1.11125,-0.3519 1.11125,-1.09273 -0.0556,-5.22287 -0.0741,-6.96383 -0.0741,-8.7974 v -0.92604 h 3.07446 c 0.72231,0 0.9816,-0.35189 0.9816,-1.00012 0,-0.57415 -0.31485,-0.85196 -0.92604,-0.85196 -0.81491,0 -3.35227,0.037 -4.0005,0.037 z"
         style="font-style:normal;font-variant:normal;font-weight:normal;font-stretch:normal;font-size:18.52083397px;font-family:Linotte;-inkscape-font-specification:Linotte;fill:#ffffff;fill-opacity:1;stroke-width:0.26458332px"
         id="path868" />
      <path
         d="m 134.02483,115.64789 -0.037,5.07471 c 0,0.57415 -0.0185,1.18534 -0.0185,1.64836 0,0.66675 0.46302,0.96308 1.05569,0.96308 0.59266,0 1.05568,-0.27781 1.03716,-1.01865 l -0.0185,-3.38931 c 0,-0.68527 0.0185,-2.09285 0.0185,-2.92629 v -4.50056 c 0,-0.57415 -0.42598,-0.889 -1.00012,-0.889 -0.57415,0 -1.07421,0.27781 -1.07421,0.9816 0.0185,1.61131 0.037,2.98186 0.037,4.05606 z"
         style="font-style:normal;font-variant:normal;font-weight:normal;font-stretch:normal;font-size:18.52083397px;font-family:Linotte;-inkscape-font-specification:Linotte;fill:#ffffff;fill-opacity:1;stroke-width:0.26458332px"
         id="path870" />
      <path
         d="m 144.60312,110.55466 c -3.0189,-0.037 -6.11188,2.55588 -6.11188,6.72307 0,3.81529 3.00038,6.16743 6.05631,6.16743 3.556,0 6.14892,-2.94481 6.14892,-6.61193 0,-3.70417 -2.83369,-6.27857 -6.09335,-6.27857 z m 4.03754,6.31561 c 0.0185,2.44475 -1.74096,4.63021 -3.98198,4.63021 -2.25954,0 -4.11163,-1.74096 -4.11163,-4.40796 0,-2.70404 1.79652,-4.64873 3.88938,-4.64873 2.18546,0 4.18571,1.74096 4.20423,4.42648 z"
         style="font-style:normal;font-variant:normal;font-weight:normal;font-stretch:normal;font-size:18.52083397px;font-family:Linotte;-inkscape-font-specification:Linotte;fill:#ffffff;fill-opacity:1;stroke-width:0.26458332px"
         id="path872" />
      <path
         d="m 154.92182,122.18575 c -0.0185,-1.90765 -0.0741,-6.20448 -0.0741,-8.20473 1.88913,2.68552 4.51908,6.42673 5.88963,8.42698 0.42597,0.59266 0.68527,0.90752 1.25941,0.90752 0.66675,0 1.22238,-0.37042 1.22238,-0.98161 0,-2.29658 -0.0185,-3.27818 -0.037,-4.27831 0,-2.01877 0.0185,-4.16719 0.0185,-6.20448 0,-0.75935 -0.29634,-1.18533 -0.98161,-1.18533 -0.85196,0 -1.07421,0.48154 -1.05569,1.29646 l 0.037,4.07458 c 0,1.31498 0.0185,2.79665 0.037,3.75973 l -1.48167,-2.11137 -4.31535,-6.09336 c -0.37042,-0.51858 -0.70379,-0.92604 -1.31498,-0.92604 -0.61119,0 -1.2409,0.33337 -1.2409,0.92604 -0.0185,0.74083 0,1.51871 0,2.03729 0,1.72244 0.0185,2.44475 0,4.14867 -0.0185,3.50044 -0.0185,4.31535 -0.0185,4.63021 0.0185,0.66675 0.4445,0.92604 1.07421,0.92604 0.62971,0 0.9816,-0.3519 0.9816,-1.14829 z"
         style="font-style:normal;font-variant:normal;font-weight:normal;font-stretch:normal;font-size:18.52083397px;font-family:Linotte;-inkscape-font-specification:Linotte;fill:#ffffff;fill-opacity:1;stroke-width:0.26458332px"
         id="path874" />
    </g>
    <text
       xml:space="preserve"
       style="font-style:normal;font-weight:normal;font-size:10.58333302px;line-height:125%;font-family:sans-serif;letter-spacing:0px;word-spacing:0px;fill:#000000;fill-opacity:1;stroke:none;stroke-width:0.26458332px;stroke-linecap:butt;stroke-linejoin:miter;stroke-opacity:1"
       x="43.953487"
       y="60.841984"
       id="text4593"><tspan
         sodipodi:role="line"
         id="tspan4591"
         x="43.953487"
         y="70.20575"
         style="stroke-width:0.26458332px" /></text>
    <text
       xml:space="preserve"
       style="font-style:normal;font-variant:normal;font-weight:normal;font-stretch:normal;font-size:10.58333302px;line-height:125%;font-family:'Gotham Condensed';-inkscape-font-specification:'Gotham Condensed, ';letter-spacing:0px;word-spacing:0px;fill:#000000;fill-opacity:1;stroke:none;stroke-width:0.26458332px;stroke-linecap:butt;stroke-linejoin:miter;stroke-opacity:1"
       x="45.358395"
       y="60.641289"
       id="text831"><tspan
         sodipodi:role="line"
         id="tspan829"
         x="45.358395"
         y="70.901802"
         style="font-style:normal;font-variant:normal;font-weight:normal;font-stretch:normal;font-family:'Gotham Condensed';-inkscape-font-specification:'Gotham Condensed, ';stroke-width:0.26458332px" /></text>
    <g
       id="g848"
       transform="translate(-0.06559607,-2.8767123)"
       inkscape:export-filename="/home/jrosenth/g848.png"
       inkscape:export-xdpi="106.01897"
       inkscape:export-ydpi="106.01897"
       style="fill:#ffffff;fill-opacity:1">
      <g
         aria-label="CS"
         style="font-style:normal;font-weight:normal;font-size:10.58333302px;line-height:125%;font-family:sans-serif;letter-spacing:0px;word-spacing:0px;fill:#ffffff;fill-opacity:1;stroke:none;stroke-width:0.26458332px;stroke-linecap:butt;stroke-linejoin:miter;stroke-opacity:1"
         id="text835">
        <path
           d="m 53.188634,76.16548 q -1.738489,0 -3.228623,-0.632178 -1.490133,-0.632178 -2.573866,-1.715911 -1.083734,-1.106311 -1.693334,-2.596445 -0.6096,-1.490133 -0.6096,-3.183466 v -0.04516 q 0,-1.693333 0.6096,-3.160889 0.6096,-1.490133 1.693334,-2.596444 1.083733,-1.128889 2.596444,-1.761067 1.512711,-0.654755 3.341511,-0.654755 1.106311,0 2.009422,0.180622 0.925689,0.180622 1.670756,0.496711 0.745067,0.316089 1.377244,0.767644 0.632178,0.451556 1.174045,0.993423 l -2.212622,2.551289 q -0.925689,-0.835378 -1.896534,-1.309512 -0.948266,-0.474133 -2.144889,-0.474133 -0.993422,0 -1.851377,0.383822 -0.835378,0.383823 -1.444978,1.061156 -0.6096,0.677333 -0.948267,1.580444 -0.338666,0.880534 -0.338666,1.896534 v 0.04515 q 0,1.016 0.338666,1.919111 0.338667,0.903111 0.925689,1.580445 0.6096,0.677333 1.444978,1.083733 0.857955,0.383822 1.873955,0.383822 1.354667,0 2.280356,-0.496711 0.948267,-0.496711 1.873956,-1.354666 l 2.212622,2.2352 q -0.6096,0.654755 -1.264356,1.174044 -0.654755,0.519289 -1.444978,0.903111 -0.767644,0.361245 -1.693333,0.541867 -0.925689,0.2032 -2.077155,0.2032 z"
           style="font-style:normal;font-variant:normal;font-weight:normal;font-stretch:normal;font-size:22.57777786px;font-family:'Gotham Bold';-inkscape-font-specification:'Gotham Bold, ';fill:#ffffff;fill-opacity:1;stroke-width:0.26458332px"
           id="path835" />
        <path
           d="m 68.07374,76.120324 q -1.806222,0 -3.544711,-0.6096 -1.738489,-0.632177 -3.160889,-1.919111 l 2.054578,-2.460978 q 1.083733,0.880534 2.212622,1.399823 1.151467,0.519288 2.506133,0.519288 1.083734,0 1.670756,-0.383822 0.6096,-0.4064 0.6096,-1.106311 v -0.04515 q 0,-0.338667 -0.135467,-0.587023 -0.112889,-0.270933 -0.474133,-0.496711 -0.338667,-0.225778 -0.970845,-0.451555 -0.6096,-0.225778 -1.603022,-0.474134 Q 66.04174,69.211524 65.070895,68.85028 64.100051,68.489035 63.422718,67.969746 62.745384,67.42788 62.361562,66.637658 62.000318,65.847435 62.000318,64.673391 v -0.04516 q 0,-1.083733 0.4064,-1.941689 0.4064,-0.880533 1.128888,-1.512711 0.745067,-0.632177 1.761067,-0.970844 1.016,-0.338667 2.2352,-0.338667 1.738489,0 3.183467,0.519289 1.467555,0.519289 2.686755,1.490133 l -1.806222,2.619023 q -1.061155,-0.722489 -2.077155,-1.128889 -1.016,-0.428978 -2.032,-0.428978 -1.016,0 -1.535289,0.4064 -0.496711,0.383822 -0.496711,0.970844 v 0.04516 q 0,0.383822 0.135466,0.677333 0.158045,0.270934 0.541867,0.496711 0.383822,0.225778 1.038578,0.428978 0.677333,0.2032 1.693333,0.474134 1.196622,0.316088 2.122311,0.722488 0.948267,0.383823 1.580445,0.948267 0.654755,0.541867 0.970844,1.286933 0.338667,0.745067 0.338667,1.783645 v 0.04515 q 0,1.174045 -0.428978,2.099734 -0.428978,0.903111 -1.196622,1.535289 -0.767645,0.6096 -1.8288,0.948266 -1.061156,0.316089 -2.348089,0.316089 z"
           style="font-style:normal;font-variant:normal;font-weight:normal;font-stretch:normal;font-size:22.57777786px;font-family:'Gotham Bold';-inkscape-font-specification:'Gotham Bold, ';fill:#ffffff;fill-opacity:1;stroke-width:0.26458332px"
           id="path837" />
      </g>
      <g
         aria-label="Mines"
         style="font-style:normal;font-weight:normal;font-size:10.58333302px;line-height:125%;font-family:sans-serif;letter-spacing:0px;word-spacing:0px;fill:#ffffff;fill-opacity:1;stroke:none;stroke-width:0.26458332px;stroke-linecap:butt;stroke-linejoin:miter;stroke-opacity:1"
         id="text836">
        <path
           d="m 100.37375,60.090102 h 3.74791 l 4.15431,6.683022 4.15432,-6.683022 h 3.74791 v 15.804445 h -3.4544 V 65.576502 l -4.44783,6.750756 h -0.0903 L 103.783,65.644235 v 10.250312 h -3.40925 z"
           style="font-style:normal;font-variant:normal;font-weight:normal;font-stretch:normal;font-size:22.57777786px;font-family:'Gotham Bold';-inkscape-font-specification:'Gotham Bold, ';fill:#ffffff;fill-opacity:1;stroke-width:0.26458332px"
           id="path840" />
        <path
           d="m 119.74972,63.792858 h 3.43182 v 12.101689 h -3.43182 z m -0.0903,-4.380089 h 3.61244 v 3.048 h -3.61244 z"
           style="font-style:normal;font-variant:normal;font-weight:normal;font-stretch:normal;font-size:22.57777786px;font-family:'Gotham Bold';-inkscape-font-specification:'Gotham Bold, ';fill:#ffffff;fill-opacity:1;stroke-width:0.26458332px"
           id="path842" />
        <path
           d="m 126.42674,63.792858 h 3.43183 v 1.715911 q 0.29351,-0.383823 0.63217,-0.722489 0.36125,-0.361245 0.79023,-0.632178 0.42897,-0.270933 0.94826,-0.428978 0.51929,-0.158044 1.17405,-0.158044 1.96426,0 3.02542,1.196622 1.08373,1.196622 1.08373,3.296356 v 7.834489 h -3.43182 v -6.750756 q 0,-1.2192 -0.54187,-1.8288 -0.54186,-0.632178 -1.53529,-0.632178 -0.99342,0 -1.58044,0.632178 -0.56444,0.6096 -0.56444,1.8288 v 6.750756 h -3.43183 z"
           style="font-style:normal;font-variant:normal;font-weight:normal;font-stretch:normal;font-size:22.57777786px;font-family:'Gotham Bold';-inkscape-font-specification:'Gotham Bold, ';fill:#ffffff;fill-opacity:1;stroke-width:0.26458332px"
           id="path844" />
        <path
           d="m 148.44114,68.895435 q -0.15805,-1.151466 -0.8128,-1.851377 -0.65476,-0.722489 -1.73849,-0.722489 -1.08374,0 -1.76107,0.699911 -0.65476,0.699911 -0.85796,1.873955 z m -2.21263,7.270045 q -1.35466,0 -2.52871,-0.451556 -1.15146,-0.451555 -2.00942,-1.286933 -0.83538,-0.835378 -1.30951,-1.964267 -0.47413,-1.151466 -0.47413,-2.551289 v -0.04515 q 0,-1.286934 0.42897,-2.4384 0.45156,-1.151467 1.24178,-2.009422 0.79022,-0.857956 1.87396,-1.354667 1.10631,-0.496711 2.4384,-0.496711 1.51271,0 2.61902,0.541866 1.10631,0.541867 1.8288,1.467556 0.74507,0.903111 1.08373,2.099733 0.36125,1.174045 0.36125,2.460978 0,0.2032 -0.0226,0.428978 0,0.225778 -0.0226,0.474133 h -8.42151 q 0.24836,1.174045 1.016,1.783645 0.79022,0.587022 1.94169,0.587022 0.85795,0 1.53529,-0.293511 0.67733,-0.293511 1.39982,-0.948267 l 1.96427,1.738489 q -0.85796,1.061156 -2.07716,1.670756 -1.2192,0.587022 -2.86738,0.587022 z"
           style="font-style:normal;font-variant:normal;font-weight:normal;font-stretch:normal;font-size:22.57777786px;font-family:'Gotham Bold';-inkscape-font-specification:'Gotham Bold, ';fill:#ffffff;fill-opacity:1;stroke-width:0.26458332px"
           id="path846" />
        <path
           d="m 158.58491,76.120324 q -1.28694,0 -2.6416,-0.428977 -1.33209,-0.451556 -2.55129,-1.399823 l 1.46755,-2.257778 q 0.99343,0.722489 1.96427,1.083734 0.99342,0.361244 1.85138,0.361244 0.74507,0 1.08373,-0.248355 0.36125,-0.248356 0.36125,-0.654756 v -0.04516 q 0,-0.270934 -0.2032,-0.474134 -0.2032,-0.2032 -0.56445,-0.338666 -0.33866,-0.158045 -0.79022,-0.293512 -0.45156,-0.135466 -0.94827,-0.293511 -0.63217,-0.180622 -1.28693,-0.428977 -0.63218,-0.270934 -1.15147,-0.677334 -0.51929,-0.428978 -0.85795,-1.038578 -0.31609,-0.6096 -0.31609,-1.490133 v -0.04516 q 0,-0.925689 0.33867,-1.6256 0.36124,-0.722489 0.94826,-1.2192 0.6096,-0.496712 1.39982,-0.745067 0.8128,-0.248356 1.73849,-0.248356 1.15147,0 2.32551,0.383823 1.19663,0.361244 2.19005,1.016 l -1.30951,2.370666 q -0.90311,-0.519289 -1.76107,-0.8128 -0.85795,-0.316089 -1.51271,-0.316089 -0.63218,0 -0.94827,0.248356 -0.31609,0.225778 -0.31609,0.587022 v 0.04516 q 0,0.248355 0.2032,0.451555 0.2032,0.180622 0.54187,0.361245 0.33867,0.158044 0.76765,0.316089 0.45155,0.158044 0.94826,0.316088 0.63218,0.2032 1.28694,0.496712 0.65475,0.270933 1.17404,0.677333 0.51929,0.4064 0.85796,0.993422 0.33866,0.587022 0.33866,1.4224 v 0.04516 q 0,1.016 -0.36124,1.761066 -0.33867,0.722489 -0.97085,1.196623 -0.63217,0.474133 -1.49013,0.722489 -0.83538,0.225777 -1.80622,0.225777 z"
           style="font-style:normal;font-variant:normal;font-weight:normal;font-stretch:normal;font-size:22.57777786px;font-family:'Gotham Bold';-inkscape-font-specification:'Gotham Bold, ';fill:#ffffff;fill-opacity:1;stroke-width:0.26458332px"
           id="path848" />
      </g>
      <g
         aria-label="@"
         style="font-style:normal;font-weight:normal;font-size:10.58333302px;line-height:125%;font-family:sans-serif;letter-spacing:0px;word-spacing:0px;fill:#ffffff;fill-opacity:1;stroke:none;stroke-width:0.26458332px;stroke-linecap:butt;stroke-linejoin:miter;stroke-opacity:1"
         id="text840">
        <path
           d="m 86.095156,72.10148 q 0.541867,0 1.016,-0.248356 0.496711,-0.248355 0.857956,-0.677333 0.383822,-0.451556 0.587022,-1.038578 0.225778,-0.587022 0.225778,-1.286933 0,-0.970845 -0.587023,-1.535289 -0.587022,-0.587022 -1.512711,-0.587022 -0.541866,0 -1.038577,0.248355 -0.496712,0.248356 -0.880534,0.677334 -0.361244,0.4064 -0.587022,0.993422 -0.2032,0.587022 -0.2032,1.264355 0,1.061156 0.587022,1.6256 0.587022,0.564445 1.535289,0.564445 z m 0.835378,7.450667 q -2.167467,0 -4.018845,-0.790223 -1.8288,-0.767644 -3.183466,-2.122311 -1.354667,-1.332089 -2.122311,-3.115733 -0.745067,-1.783645 -0.745067,-3.815645 0,-2.032 0.767644,-3.815644 0.767645,-1.806222 2.099734,-3.138311 1.332089,-1.354667 3.138311,-2.144889 1.806222,-0.790222 3.883378,-0.790222 2.077155,0 3.8608,0.745066 1.806222,0.745067 3.138311,1.986845 1.332089,1.241778 2.077155,2.867378 0.767645,1.603022 0.767645,3.341511 0,1.4224 -0.361245,2.483555 -0.338666,1.061156 -0.948266,1.783645 -0.6096,0.699911 -1.444978,1.061155 -0.8128,0.338667 -1.738489,0.338667 -1.377244,0 -2.212622,-0.428978 -0.8128,-0.428978 -1.241778,-0.925689 -0.587022,0.519289 -1.4224,0.948267 -0.8128,0.4064 -1.919111,0.4064 -0.857956,0 -1.6256,-0.293511 -0.745067,-0.316089 -1.309511,-0.880534 -0.564445,-0.564444 -0.880534,-1.354666 -0.316088,-0.8128 -0.316088,-1.8288 0,-1.196622 0.4064,-2.2352 0.428977,-1.038578 1.128888,-1.783645 0.699912,-0.767644 1.603023,-1.196622 0.925689,-0.451555 1.919111,-0.451555 1.174044,0 1.896533,0.451555 0.745067,0.428978 1.2192,1.083733 l 0.248356,-1.196622 2.664177,0.428978 -1.061155,6.073422 q -0.04516,0.180622 -0.06773,0.383822 0,0.180623 0,0.316089 0,0.6096 0.428977,1.016 0.428978,0.4064 1.2192,0.4064 0.6096,0 1.128889,-0.293511 0.519289,-0.293511 0.903111,-0.880533 0.383823,-0.587022 0.6096,-1.444978 0.225778,-0.857955 0.225778,-1.986844 0,-1.557867 -0.677333,-3.002845 -0.677334,-1.467555 -1.873956,-2.573866 -1.174044,-1.128889 -2.822222,-1.783645 -1.6256,-0.677333 -3.522133,-0.677333 -1.919111,0 -3.567289,0.722489 -1.6256,0.699911 -2.822222,1.919111 -1.196623,1.2192 -1.873956,2.867378 -0.677333,1.6256 -0.677333,3.476977 0,1.873956 0.677333,3.499556 0.677333,1.6256 1.873956,2.822222 1.2192,1.2192 2.889955,1.919111 1.670756,0.699911 3.680178,0.699911 1.693333,0 2.957689,-0.383822 1.286933,-0.383822 2.573866,-1.128889 l 0.451556,0.722489 q -1.309511,0.790222 -2.777067,1.241778 -1.444977,0.451556 -3.206044,0.451556 z"
           style="font-style:normal;font-variant:normal;font-weight:normal;font-stretch:normal;font-size:22.57777786px;font-family:'Gotham Bold';-inkscape-font-specification:'Gotham Bold, ';fill:#ffffff;fill-opacity:1;stroke-width:0.26458332px"
           id="path851" />
      </g>
    </g>
  </g>
</svg>
