<?xml version="1.0" encoding="UTF-8" standalone="no"?>
<svg xmlns:svg="http://www.w3.org/2000/svg" xmlns="http://www.w3.org/2000/svg" id="svg8" version="1.1" viewBox="0 0 118.27295 66.909096" height="66.909096mm" width="118.27295mm"><defs id="defs2"/><g transform="translate(-44.946206,-33.636109)" id="layer1"><g id="text4571" style="fill:#ffffff;fill-opacity:1;stroke:none;stroke-width:0.26458332px;stroke-linecap:butt;stroke-linejoin:miter;stroke-opacity:1" aria-label="PUZZLE"><path id="path954" style="fill:#ffffff;fill-opacity:1;stroke-width:0.26458332px" d="m 45.167289,67.127122 c -0.03563,4.881386 -0.03563,9.121422 -0.07126,13.610871 0,0.997656 0.712611,1.639006 1.995311,1.639006 1.140178,0 2.066572,-0.498828 2.066572,-1.781528 0,-2.529769 -0.07126,-4.631972 -0.07126,-6.805436 h 1.140178 c 1.745897,0 4.703233,0 5.914672,-0.320675 3.491794,-0.819502 5.77215,-4.204405 5.843411,-7.589308 0.03563,-3.028597 -1.140178,-5.095169 -3.135489,-6.413499 -1.674636,-1.104548 -3.8481,-1.603375 -6.128455,-1.603375 -1.92405,0.03563 -4.382558,0.03563 -5.487106,0.142522 -1.068916,0.07126 -1.817158,0.64135 -2.066572,1.567744 -0.178152,0.962025 -0.07126,2.209095 -0.07126,3.278011 0.03563,1.068917 0.07126,3.17112 0.07126,4.275667 z m 3.954992,0.142522 c 0,-2.280355 -0.03563,-4.48945 -0.03563,-5.843411 0.748242,-0.03563 2.672292,-0.03563 3.420533,-0.03563 1.425223,0 2.5654,0.142522 3.598686,0.67698 1.140178,0.605719 2.030942,1.745897 1.995311,3.598686 -0.03563,1.852789 -1.104547,3.8481 -3.064227,4.311297 -0.962025,0.249414 -2.351617,0.285045 -4.168775,0.249414 h -1.710267 c 0,-1.033286 -0.03563,-1.995311 -0.03563,-2.957336 z"/><path id="path956" style="fill:#ffffff;fill-opacity:1;stroke-width:0.26458332px" d="m 65.554091,72.222291 c 0,6.484761 3.705577,10.154708 9.442097,10.154708 6.235346,0 9.834032,-4.275667 9.834032,-11.045472 l -0.07126,-11.081102 c 0,-1.639006 -0.605719,-2.280356 -1.95968,-2.280356 -1.211439,0 -2.030942,0.570089 -2.030942,1.88842 0,3.669947 0.142522,8.765116 0.03563,12.292541 -0.03563,3.741208 -2.173464,6.556022 -5.558367,6.556022 -3.598686,0 -5.736519,-2.066572 -5.736519,-6.520392 0,-2.921705 -0.03563,-7.73183 0.03563,-12.114388 0,-1.425222 -0.534459,-2.030942 -2.066572,-2.030942 -1.211439,0 -1.88842,0.64135 -1.88842,1.959681 0,3.028597 -0.03563,7.803091 -0.03563,12.22128 z"/><path id="path958" style="fill:#ffffff;fill-opacity:1;stroke-width:0.26458332px" d="m 90.406402,61.640016 c 2.814814,0 7.339894,-0.03563 10.546648,-0.03563 l -1.532118,2.351616 c -2.066572,2.886075 -4.240036,5.985934 -6.841066,9.62025 l -2.244725,3.099858 c -0.926394,1.24707 -1.532114,2.280356 -1.745897,3.349272 -0.03563,0.356306 0,0.64135 0.07126,0.926395 0.213783,0.997655 1.318331,1.211439 2.209094,1.211439 4.168775,0 8.729486,0 13.183301,-0.03563 1.71027,0 2.17347,-0.890764 2.17347,-1.781528 0,-0.926394 -0.4632,-1.888419 -1.85279,-1.888419 -2.06657,0 -5.629628,0.178153 -10.90295,0.178153 0.570089,-0.819503 1.175808,-1.745897 1.817158,-2.672292 3.171119,-4.667602 5.807782,-8.408811 8.586962,-12.328172 l 1.17581,-1.781527 c 0.57009,-0.819503 0.92639,-1.567745 0.92639,-2.173464 0,-1.104547 -0.71261,-1.745897 -1.95968,-1.745897 -1.88842,0 -4.240032,0.07126 -5.985929,0.07126 h -7.482417 c -1.2827,0 -1.888419,0.748242 -1.888419,1.888419 0,1.068917 0.64135,1.745897 1.745897,1.745897 z"/><path id="path960" style="fill:#ffffff;fill-opacity:1;stroke-width:0.26458332px" d="m 110.23981,61.640016 c 2.81482,0 7.3399,-0.03563 10.54665,-0.03563 l -1.53212,2.351616 c -2.06657,2.886075 -4.24003,5.985934 -6.84106,9.62025 l -2.24473,3.099858 c -0.92639,1.24707 -1.53211,2.280356 -1.74589,3.349272 -0.0356,0.356306 0,0.64135 0.0713,0.926395 0.21378,0.997655 1.31833,1.211439 2.20909,1.211439 4.16878,0 8.72949,0 13.18331,-0.03563 1.71026,0 2.17346,-0.890764 2.17346,-1.781528 0,-0.926394 -0.4632,-1.888419 -1.85279,-1.888419 -2.06657,0 -5.62963,0.178153 -10.90295,0.178153 0.57009,-0.819503 1.17581,-1.745897 1.81716,-2.672292 3.17112,-4.667602 5.80778,-8.408811 8.58696,-12.328172 l 1.17581,-1.781527 c 0.57009,-0.819503 0.9264,-1.567745 0.9264,-2.173464 0,-1.104547 -0.71261,-1.745897 -1.95968,-1.745897 -1.88842,0 -4.24004,0.07126 -5.98594,0.07126 h -7.48241 c -1.2827,0 -1.88842,0.748242 -1.88842,1.888419 0,1.068917 0.64135,1.745897 1.74589,1.745897 z"/><path id="path962" style="fill:#ffffff;fill-opacity:1;stroke-width:0.26458332px" d="m 129.89507,59.680336 c 0,2.458508 0.0356,6.876697 0.0356,10.119077 -0.0356,2.992967 -0.17815,6.021564 -0.17815,8.765117 v 1.353961 c 0.17815,1.95968 0.96203,2.387247 3.63432,2.280355 1.46085,-0.07126 3.20675,-0.07126 5.02391,-0.07126 l 4.06188,0.03563 c 1.31833,0 1.85279,-0.855134 1.85279,-2.030942 0,-0.962025 -0.4632,-1.674636 -1.7459,-1.674636 l -5.09517,0.178153 c -0.85513,0.03563 -2.77918,0.03563 -3.77684,0.03563 0,-0.356305 0.0356,-0.926394 0.0356,-4.810124 0,-2.173464 0.0356,-4.45382 0.0356,-6.662914 0.0356,-2.601031 0.1069,-5.16643 0.1069,-7.518047 -0.0356,-1.389592 -0.81951,-1.817158 -1.85279,-1.817158 -1.14018,0 -2.10221,0.605719 -2.13784,1.817158 z"/><path id="path964" style="fill:#ffffff;fill-opacity:1;stroke-width:0.26458332px" d="m 147.92247,59.787228 c 0,2.921705 -0.0356,5.772149 -0.0356,8.658224 0,5.665258 -0.14252,10.047817 -0.14252,10.225969 v 1.318331 c 0.10689,1.95968 0.85513,2.244725 3.77683,2.244725 4.27567,0 7.19738,0.07126 9.58462,0 1.63901,-0.03563 1.99531,-0.926395 1.99531,-1.88842 0,-1.068916 -0.46319,-1.745897 -1.56774,-1.745897 -0.57009,0 -1.03329,0.03563 -1.7459,0.07126 -3.63431,0.03563 -6.4135,0.07126 -8.12376,0.03563 0,-1.460853 0.0356,-3.064228 0.0356,-4.525081 0,-0.748241 0,-1.567744 0.0356,-2.280355 1.42522,0 6.02156,-0.03563 7.58931,-0.03563 1.42522,0 1.85278,-0.712611 1.85278,-1.674636 0.0356,-1.496483 -0.8195,-1.710266 -2.17346,-1.710266 -1.35396,0.03563 -4.70323,0.106891 -5.77215,0.106891 h -1.42522 v -0.463197 l 0.0356,-3.349272 v -3.420533 h 1.56774 c 2.92171,0 6.66292,0.03563 8.23066,-0.03563 0.9264,-0.213783 1.14018,-1.068916 1.10455,-1.781527 0,-0.926395 -0.57009,-1.603375 -1.92405,-1.603375 -1.7459,0 -4.34693,0.07126 -8.80075,0.07126 -0.53446,-0.03563 -1.17581,-0.03563 -1.56774,-0.03563 -1.46085,0 -2.45851,0.463198 -2.52977,1.817159 z"/></g><g id="text4589" style="fill:#ffffff;fill-opacity:1;stroke:none;stroke-width:0.26458332px;stroke-linecap:butt;stroke-linejoin:miter;stroke-opacity:1" aria-label="COMPETITION"><path id="path931" style="fill:#ffffff;fill-opacity:1;stroke-width:0.26458332px" d="m 53.743955,88.191805 c -0.648229,-0.277812 -1.722438,-0.500062 -2.704042,-0.518583 -2.981854,-0.01852 -6.056313,2.500312 -6.093354,6.630458 -0.03704,3.907896 2.852208,6.18596 5.815541,6.223 1.963209,0.0185 4.074584,-0.870479 4.093105,-1.778 0,-0.500062 -0.296334,-1.074208 -0.814917,-1.074208 -0.370417,0 -0.518583,0.148167 -0.814917,0.296333 -0.592666,0.351896 -1.407583,0.629709 -2.259541,0.611188 -2.166938,0 -3.98198,-1.870604 -3.963459,-4.352396 0.01852,-2.796646 1.907646,-4.685771 3.889375,-4.685771 0.870479,0 1.55575,0.22225 2.074334,0.4445 0.259291,0.129646 0.500062,0.240771 0.814916,0.240771 0.611188,0.01852 0.87048,-0.4445 0.889,-1.000125 0,-0.537104 -0.425979,-0.814917 -0.926041,-1.037167 z"/><path id="path933" style="fill:#ffffff;fill-opacity:1;stroke-width:0.26458332px" d="m 62.344567,87.654701 c -3.018896,-0.03704 -6.111876,2.555875 -6.111876,6.723063 0,3.815291 3.000375,6.167436 6.056313,6.167436 3.556,0 6.148917,-2.944811 6.148917,-6.611936 0,-3.704167 -2.833688,-6.278563 -6.093354,-6.278563 z m 4.037541,6.315604 c 0.01852,2.44475 -1.740958,4.630209 -3.981979,4.630209 -2.259542,0 -4.111625,-1.740959 -4.111625,-4.407959 0,-2.704041 1.796521,-4.648729 3.889375,-4.648729 2.185458,0 4.185709,1.740958 4.204229,4.426479 z"/><path id="path935" style="fill:#ffffff;fill-opacity:1;stroke-width:0.26458332px" d="m 73.163338,91.19218 c 0.537104,1.55575 1.889125,5.53773 2.741083,7.889875 0.22225,0.500063 0.388938,0.926045 1.055688,0.944565 0.68527,0.0185 1.055687,-0.40746 1.240895,-0.870481 l 3.000376,-7.852834 c 0.259291,2.667 0.518583,5.667375 0.814916,8.315855 0.07408,0.55562 0.4445,0.85196 1.018646,0.85196 0.592667,0 1.074209,-0.3519 1.018646,-1.05569 -0.592667,-4.741333 -1.166813,-10.279062 -1.444625,-11.279187 -0.148167,-0.277813 -0.481542,-0.388938 -0.851958,-0.407459 -0.166688,-0.01852 -0.370417,0 -0.537105,0.01852 -0.574145,0.166688 -0.796395,0.740833 -0.963083,1.11125 -1.481667,3.944938 -2.166938,5.834063 -3.037417,7.926917 l -0.166687,0.4445 c -0.03704,-0.185208 -0.148167,-0.481542 -0.259292,-0.796396 -0.722312,-2.111375 -1.778,-5.167312 -2.667,-7.649104 -0.203729,-0.592667 -0.500063,-1.018646 -1.11125,-1.018646 -0.518583,-0.01852 -1.203854,0.185208 -1.352021,0.722312 -0.240771,1.75948 -1.092729,8.260292 -1.518708,10.890251 -0.0926,0.611187 0.333375,1.074211 0.981604,1.074211 0.555625,0 0.926042,-0.22225 1.037167,-0.83344 0.129645,-0.851959 0.66675,-5.871105 1.000125,-8.42698 z"/><path id="path937" style="fill:#ffffff;fill-opacity:1;stroke-width:0.26458332px" d="m 86.507019,92.544201 c -0.01852,2.537354 -0.01852,4.741334 -0.03704,7.074959 0,0.51858 0.370416,0.85196 1.037166,0.85196 0.592667,0 1.074209,-0.25929 1.074209,-0.926044 0,-1.314979 -0.03704,-2.407708 -0.03704,-3.537479 h 0.592667 c 0.90752,0 2.44475,0 3.074458,-0.166688 1.815042,-0.425979 3.000375,-2.185458 3.037417,-3.944937 0.01852,-1.574271 -0.592667,-2.648479 -1.629834,-3.33375 -0.870479,-0.574146 -2.00025,-0.833438 -3.185583,-0.833438 -1.000125,0.01852 -2.278063,0.01852 -2.852208,0.07408 -0.555625,0.03704 -0.944563,0.333375 -1.074209,0.814916 -0.0926,0.500063 -0.03704,1.148292 -0.03704,1.703917 0.01852,0.555625 0.03704,1.648354 0.03704,2.2225 z m 2.055813,0.07408 c 0,-1.185333 -0.01852,-2.333625 -0.01852,-3.037416 0.388937,-0.01852 1.389062,-0.01852 1.778,-0.01852 0.740833,0 1.3335,0.07408 1.870604,0.351896 0.592667,0.314854 1.055688,0.90752 1.037167,1.870604 -0.01852,0.963083 -0.574146,2.00025 -1.592792,2.241021 -0.500062,0.129646 -1.222375,0.148166 -2.166937,0.129646 h -0.889 c 0,-0.537105 -0.01852,-1.037167 -0.01852,-1.53723 z"/><path id="path939" style="fill:#ffffff;fill-opacity:1;stroke-width:0.26458332px" d="m 97.270808,88.728909 c 0,1.518709 -0.01852,3.000375 -0.01852,4.500563 0,2.944813 -0.07408,5.222875 -0.07408,5.315479 v 0.685271 c 0.05556,1.018648 0.4445,1.166808 1.963208,1.166808 2.222498,0 3.741208,0.037 4.982108,0 0.85195,-0.0185 1.03716,-0.481537 1.03716,-0.9816 0,-0.555625 -0.24077,-0.90752 -0.81491,-0.90752 -0.29634,0 -0.53711,0.01852 -0.90752,0.03704 -1.88913,0.01852 -3.33375,0.03704 -4.222755,0.01852 0,-0.759354 0.01852,-1.592792 0.01852,-2.352146 0,-0.388937 0,-0.814917 0.01852,-1.185333 0.740833,0 3.130023,-0.01852 3.944933,-0.01852 0.74084,0 0.96309,-0.370417 0.96309,-0.870479 0.0185,-0.777875 -0.42598,-0.889 -1.12977,-0.889 -0.70379,0.01852 -2.44475,0.05556 -3.00038,0.05556 h -0.740831 v -0.240771 l 0.01852,-1.740958 v -1.778 h 0.81492 c 1.5187,0 3.46339,0.01852 4.27831,-0.01852 0.48154,-0.111125 0.59267,-0.555625 0.57414,-0.926042 0,-0.481541 -0.29633,-0.833437 -1.00012,-0.833437 -0.90752,0 -2.25954,0.03704 -4.574646,0.03704 -0.277813,-0.01852 -0.611188,-0.01852 -0.814917,-0.01852 -0.759354,0 -1.277937,0.240771 -1.314979,0.944562 z"/><path id="path941" style="fill:#ffffff;fill-opacity:1;stroke-width:0.26458332px" d="m 111.28877,87.802868 c -3.18559,0 -3.83382,-0.01852 -4.31536,-0.01852 -0.64823,0.01852 -0.90752,0.425979 -0.90752,0.907521 0,0.574145 0.25929,0.944562 0.87048,0.944562 1.55575,0 2.50031,0 3.22262,-0.01852 0.0185,1.092729 0.037,1.907646 0.037,2.981855 l -0.037,6.815666 c -0.0185,0.75935 0.3519,1.01865 0.96309,1.01865 0.72231,0 1.11125,-0.3519 1.11125,-1.092733 -0.0556,-5.222875 -0.0741,-6.963833 -0.0741,-8.797396 v -0.926042 h 3.07446 c 0.72232,0 0.98161,-0.351896 0.98161,-1.000125 0,-0.574146 -0.31486,-0.851958 -0.92604,-0.851958 -0.81492,0 -3.35228,0.03704 -4.0005,0.03704 z"/><path id="path943" style="fill:#ffffff;fill-opacity:1;stroke-width:0.26458332px" d="m 118.10848,92.74793 -0.037,5.074709 c 0,0.574146 -0.0185,1.185333 -0.0185,1.648354 0,0.666747 0.46302,0.963087 1.05569,0.963087 0.59266,0 1.05569,-0.27782 1.03716,-1.01865 l -0.0185,-3.389312 c 0,-0.685271 0.0185,-2.092854 0.0185,-2.926292 v -4.500563 c 0,-0.574145 -0.42597,-0.889 -1.00012,-0.889 -0.57415,0 -1.07421,0.277813 -1.07421,0.981605 0.0185,1.611312 0.037,2.981854 0.037,4.056062 z"/><path id="path945" style="fill:#ffffff;fill-opacity:1;stroke-width:0.26458332px" d="m 127.20511,87.802868 c -3.18558,0 -3.83381,-0.01852 -4.31536,-0.01852 -0.64822,0.01852 -0.90752,0.425979 -0.90752,0.907521 0,0.574145 0.2593,0.944562 0.87048,0.944562 1.55575,0 2.50032,0 3.22263,-0.01852 0.0185,1.092729 0.037,1.907646 0.037,2.981855 l -0.037,6.815666 c -0.0185,0.75935 0.35189,1.01865 0.96308,1.01865 0.72231,0 1.11125,-0.3519 1.11125,-1.092733 -0.0556,-5.222875 -0.0741,-6.963833 -0.0741,-8.797396 v -0.926042 h 3.07446 c 0.72231,0 0.9816,-0.351896 0.9816,-1.000125 0,-0.574146 -0.31485,-0.851958 -0.92604,-0.851958 -0.81492,0 -3.35227,0.03704 -4.0005,0.03704 z"/><path id="path947" style="fill:#ffffff;fill-opacity:1;stroke-width:0.26458332px" d="m 134.02483,92.74793 -0.037,5.074709 c 0,0.574146 -0.0185,1.185333 -0.0185,1.648354 0,0.666747 0.46303,0.963087 1.05569,0.963087 0.59267,0 1.05569,-0.27782 1.03717,-1.01865 l -0.0185,-3.389312 c 0,-0.685271 0.0185,-2.092854 0.0185,-2.926292 v -4.500563 c 0,-0.574145 -0.42598,-0.889 -1.00013,-0.889 -0.57414,0 -1.0742,0.277813 -1.0742,0.981605 0.0185,1.611312 0.037,2.981854 0.037,4.056062 z"/><path id="path949" style="fill:#ffffff;fill-opacity:1;stroke-width:0.26458332px" d="m 144.60311,87.654701 c -3.01889,-0.03704 -6.11187,2.555875 -6.11187,6.723063 0,3.815291 3.00037,6.167436 6.05631,6.167436 3.556,0 6.14892,-2.944811 6.14892,-6.611936 0,-3.704167 -2.83369,-6.278563 -6.09336,-6.278563 z m 4.03754,6.315604 c 0.0185,2.44475 -1.74096,4.630209 -3.98198,4.630209 -2.25954,0 -4.11162,-1.740959 -4.11162,-4.407959 0,-2.704041 1.79652,-4.648729 3.88937,-4.648729 2.18546,0 4.18571,1.740958 4.20423,4.426479 z"/><path id="path951" style="fill:#ffffff;fill-opacity:1;stroke-width:0.26458332px" d="m 154.92182,99.285785 c -0.0185,-1.907646 -0.0741,-6.20448 -0.0741,-8.20473 1.88912,2.685521 4.51908,6.42673 5.88962,8.42698 0.42598,0.592665 0.68527,0.907525 1.25942,0.907525 0.66675,0 1.22237,-0.37042 1.22237,-0.981609 0,-2.296583 -0.0185,-3.278187 -0.037,-4.278312 0,-2.018771 0.0185,-4.167188 0.0185,-6.20448 0,-0.759354 -0.29633,-1.185333 -0.9816,-1.185333 -0.85196,0 -1.07421,0.481542 -1.05569,1.296458 l 0.037,4.074584 c 0,1.314979 0.0185,2.796646 0.037,3.759729 l -1.48166,-2.111375 -4.31536,-6.093354 c -0.37041,-0.518584 -0.70379,-0.926042 -1.31498,-0.926042 -0.61118,0 -1.24089,0.333375 -1.24089,0.926042 -0.0185,0.740833 0,1.518708 0,2.037291 0,1.722438 0.0185,2.44475 0,4.148667 -0.0185,3.500438 -0.0185,4.315354 -0.0185,4.630209 0.0185,0.666745 0.4445,0.926045 1.07421,0.926045 0.6297,0 0.9816,-0.3519 0.9816,-1.148295 z"/></g><text id="text4593" y="60.841984" x="43.953487" style="fill:#000000;fill-opacity:1;stroke:none;stroke-width:0.26458332px;stroke-linecap:butt;stroke-linejoin:miter;stroke-opacity:1" xml:space="preserve"><tspan style="stroke-width:0.26458332px" y="70.20575" x="43.953487" id="tspan4591"/></text><text id="text831" y="60.641289" x="45.358395" style="fill:#000000;fill-opacity:1;stroke:none;stroke-width:0.26458332px;stroke-linecap:butt;stroke-linejoin:miter;stroke-opacity:1" xml:space="preserve"><tspan style="stroke-width:0.26458332px" y="70.901802" x="45.358395" id="tspan829"/></text><g style="fill:#ffffff;fill-opacity:1" transform="translate(-0.06561899,-25.77666)" id="g848"><g id="text835" style="fill:#ffffff;fill-opacity:1;stroke:none;stroke-width:0.26458332px;stroke-linecap:butt;stroke-linejoin:miter;stroke-opacity:1" aria-label="CS"><path id="path912" style="fill:#ffffff;fill-opacity:1;stroke-width:0.26458332px" d="m 53.188634,76.16548 q -1.738489,0 -3.228623,-0.632178 -1.490133,-0.632178 -2.573866,-1.715911 -1.083734,-1.106311 -1.693334,-2.596445 -0.6096,-1.490133 -0.6096,-3.183466 v -0.04516 q 0,-1.693333 0.6096,-3.160889 0.6096,-1.490133 1.693334,-2.596444 1.083733,-1.128889 2.596444,-1.761067 1.512711,-0.654755 3.341511,-0.654755 1.106311,0 2.009422,0.180622 0.925689,0.180622 1.670756,0.496711 0.745067,0.316089 1.377244,0.767644 0.632178,0.451556 1.174045,0.993423 l -2.212622,2.551289 q -0.925689,-0.835378 -1.896534,-1.309512 -0.948266,-0.474133 -2.144889,-0.474133 -0.993422,0 -1.851377,0.383822 -0.835378,0.383823 -1.444978,1.061156 -0.6096,0.677333 -0.948267,1.580444 -0.338666,0.880534 -0.338666,1.896534 v 0.04515 q 0,1.016 0.338666,1.919111 0.338667,0.903111 0.925689,1.580445 0.6096,0.677333 1.444978,1.083733 0.857955,0.383822 1.873955,0.383822 1.354667,0 2.280356,-0.496711 0.948267,-0.496711 1.873956,-1.354666 l 2.212622,2.2352 q -0.6096,0.654755 -1.264356,1.174044 -0.654755,0.519289 -1.444978,0.903111 -0.767644,0.361245 -1.693333,0.541867 -0.925689,0.2032 -2.077155,0.2032 z"/><path id="path914" style="fill:#ffffff;fill-opacity:1;stroke-width:0.26458332px" d="m 68.07374,76.120324 q -1.806222,0 -3.544711,-0.6096 -1.738489,-0.632177 -3.160889,-1.919111 l 2.054578,-2.460978 q 1.083733,0.880534 2.212622,1.399823 1.151467,0.519288 2.506133,0.519288 1.083734,0 1.670756,-0.383822 0.6096,-0.4064 0.6096,-1.106311 v -0.04515 q 0,-0.338667 -0.135467,-0.587023 -0.112889,-0.270933 -0.474133,-0.496711 -0.338667,-0.225778 -0.970845,-0.451555 -0.6096,-0.225778 -1.603022,-0.474134 Q 66.04174,69.211524 65.070895,68.85028 64.100051,68.489035 63.422718,67.969746 62.745384,67.42788 62.361562,66.637658 62.000318,65.847435 62.000318,64.673391 v -0.04516 q 0,-1.083733 0.4064,-1.941689 0.4064,-0.880533 1.128888,-1.512711 0.745067,-0.632177 1.761067,-0.970844 1.016,-0.338667 2.2352,-0.338667 1.738489,0 3.183467,0.519289 1.467555,0.519289 2.686755,1.490133 l -1.806222,2.619023 q -1.061155,-0.722489 -2.077155,-1.128889 -1.016,-0.428978 -2.032,-0.428978 -1.016,0 -1.535289,0.4064 -0.496711,0.383822 -0.496711,0.970844 v 0.04516 q 0,0.383822 0.135466,0.677333 0.158045,0.270934 0.541867,0.496711 0.383822,0.225778 1.038578,0.428978 0.677333,0.2032 1.693333,0.474134 1.196622,0.316088 2.122311,0.722488 0.948267,0.383823 1.580445,0.948267 0.654755,0.541867 0.970844,1.286933 0.338667,0.745067 0.338667,1.783645 v 0.04515 q 0,1.174045 -0.428978,2.099734 -0.428978,0.903111 -1.196622,1.535289 -0.767645,0.6096 -1.8288,0.948266 -1.061156,0.316089 -2.348089,0.316089 z"/></g><g id="text836" style="fill:#ffffff;fill-opacity:1;stroke:none;stroke-width:0.26458332px;stroke-linecap:butt;stroke-linejoin:miter;stroke-opacity:1" aria-label="Mines"><path id="path917" style="fill:#ffffff;fill-opacity:1;stroke-width:0.26458332px" d="m 100.37375,60.090102 h 3.74791 l 4.15431,6.683022 4.15432,-6.683022 h 3.74791 v 15.804445 h -3.4544 V 65.576502 l -4.44783,6.750756 h -0.0903 L 103.783,65.644235 v 10.250312 h -3.40925 z"/><path id="path919" style="fill:#ffffff;fill-opacity:1;stroke-width:0.26458332px" d="m 119.74972,63.792858 h 3.43182 v 12.101689 h -3.43182 z m -0.0903,-4.380089 h 3.61244 v 3.048 h -3.61244 z"/><path id="path921" style="fill:#ffffff;fill-opacity:1;stroke-width:0.26458332px" d="m 126.42674,63.792858 h 3.43183 v 1.715911 q 0.29351,-0.383823 0.63217,-0.722489 0.36125,-0.361245 0.79023,-0.632178 0.42897,-0.270933 0.94826,-0.428978 0.51929,-0.158044 1.17405,-0.158044 1.96426,0 3.02542,1.196622 1.08373,1.196622 1.08373,3.296356 v 7.834489 h -3.43182 v -6.750756 q 0,-1.2192 -0.54187,-1.8288 -0.54186,-0.632178 -1.53529,-0.632178 -0.99342,0 -1.58044,0.632178 -0.56444,0.6096 -0.56444,1.8288 v 6.750756 h -3.43183 z"/><path id="path923" style="fill:#ffffff;fill-opacity:1;stroke-width:0.26458332px" d="m 148.44114,68.895435 q -0.15805,-1.151466 -0.8128,-1.851377 -0.65476,-0.722489 -1.73849,-0.722489 -1.08374,0 -1.76107,0.699911 -0.65476,0.699911 -0.85796,1.873955 z m -2.21263,7.270045 q -1.35466,0 -2.52871,-0.451556 -1.15146,-0.451555 -2.00942,-1.286933 -0.83538,-0.835378 -1.30951,-1.964267 -0.47413,-1.151466 -0.47413,-2.551289 v -0.04515 q 0,-1.286934 0.42897,-2.4384 0.45156,-1.151467 1.24178,-2.009422 0.79022,-0.857956 1.87396,-1.354667 1.10631,-0.496711 2.4384,-0.496711 1.51271,0 2.61902,0.541866 1.10631,0.541867 1.8288,1.467556 0.74507,0.903111 1.08373,2.099733 0.36125,1.174045 0.36125,2.460978 0,0.2032 -0.0226,0.428978 0,0.225778 -0.0226,0.474133 h -8.42151 q 0.24836,1.174045 1.016,1.783645 0.79022,0.587022 1.94169,0.587022 0.85795,0 1.53529,-0.293511 0.67733,-0.293511 1.39982,-0.948267 l 1.96427,1.738489 q -0.85796,1.061156 -2.07716,1.670756 -1.2192,0.587022 -2.86738,0.587022 z"/><path id="path925" style="fill:#ffffff;fill-opacity:1;stroke-width:0.26458332px" d="m 158.58491,76.120324 q -1.28694,0 -2.6416,-0.428977 -1.33209,-0.451556 -2.55129,-1.399823 l 1.46755,-2.257778 q 0.99343,0.722489 1.96427,1.083734 0.99342,0.361244 1.85138,0.361244 0.74507,0 1.08373,-0.248355 0.36125,-0.248356 0.36125,-0.654756 v -0.04516 q 0,-0.270934 -0.2032,-0.474134 -0.2032,-0.2032 -0.56445,-0.338666 -0.33866,-0.158045 -0.79022,-0.293512 -0.45156,-0.135466 -0.94827,-0.293511 -0.63217,-0.180622 -1.28693,-0.428977 -0.63218,-0.270934 -1.15147,-0.677334 -0.51929,-0.428978 -0.85795,-1.038578 -0.31609,-0.6096 -0.31609,-1.490133 v -0.04516 q 0,-0.925689 0.33867,-1.6256 0.36124,-0.722489 0.94826,-1.2192 0.6096,-0.496712 1.39982,-0.745067 0.8128,-0.248356 1.73849,-0.248356 1.15147,0 2.32551,0.383823 1.19663,0.361244 2.19005,1.016 l -1.30951,2.370666 q -0.90311,-0.519289 -1.76107,-0.8128 -0.85795,-0.316089 -1.51271,-0.316089 -0.63218,0 -0.94827,0.248356 -0.31609,0.225778 -0.31609,0.587022 v 0.04516 q 0,0.248355 0.2032,0.451555 0.2032,0.180622 0.54187,0.361245 0.33867,0.158044 0.76765,0.316089 0.45155,0.158044 0.94826,0.316088 0.63218,0.2032 1.28694,0.496712 0.65475,0.270933 1.17404,0.677333 0.51929,0.4064 0.85796,0.993422 0.33866,0.587022 0.33866,1.4224 v 0.04516 q 0,1.016 -0.36124,1.761066 -0.33867,0.722489 -0.97085,1.196623 -0.63217,0.474133 -1.49013,0.722489 -0.83538,0.225777 -1.80622,0.225777 z"/></g><g id="text840" style="fill:#ffffff;fill-opacity:1;stroke:none;stroke-width:0.26458332px;stroke-linecap:butt;stroke-linejoin:miter;stroke-opacity:1" aria-label="@"><path id="path928" style="fill:#ffffff;fill-opacity:1;stroke-width:0.26458332px" d="m 86.095156,72.10148 q 0.541867,0 1.016,-0.248356 0.496711,-0.248355 0.857956,-0.677333 0.383822,-0.451556 0.587022,-1.038578 0.225778,-0.587022 0.225778,-1.286933 0,-0.970845 -0.587023,-1.535289 -0.587022,-0.587022 -1.512711,-0.587022 -0.541866,0 -1.038577,0.248355 -0.496712,0.248356 -0.880534,0.677334 -0.361244,0.4064 -0.587022,0.993422 -0.2032,0.587022 -0.2032,1.264355 0,1.061156 0.587022,1.6256 0.587022,0.564445 1.535289,0.564445 z m 0.835378,7.450667 q -2.167467,0 -4.018845,-0.790223 -1.8288,-0.767644 -3.183466,-2.122311 -1.354667,-1.332089 -2.122311,-3.115733 -0.745067,-1.783645 -0.745067,-3.815645 0,-2.032 0.767644,-3.815644 0.767645,-1.806222 2.099734,-3.138311 1.332089,-1.354667 3.138311,-2.144889 1.806222,-0.790222 3.883378,-0.790222 2.077155,0 3.8608,0.745066 1.806222,0.745067 3.138311,1.986845 1.332089,1.241778 2.077155,2.867378 0.767645,1.603022 0.767645,3.341511 0,1.4224 -0.361245,2.483555 -0.338666,1.061156 -0.948266,1.783645 -0.6096,0.699911 -1.444978,1.061155 -0.8128,0.338667 -1.738489,0.338667 -1.377244,0 -2.212622,-0.428978 -0.8128,-0.428978 -1.241778,-0.925689 -0.587022,0.519289 -1.4224,0.948267 -0.8128,0.4064 -1.919111,0.4064 -0.857956,0 -1.6256,-0.293511 -0.745067,-0.316089 -1.309511,-0.880534 -0.564445,-0.564444 -0.880534,-1.354666 -0.316088,-0.8128 -0.316088,-1.8288 0,-1.196622 0.4064,-2.2352 0.428977,-1.038578 1.128888,-1.783645 0.699912,-0.767644 1.603023,-1.196622 0.925689,-0.451555 1.919111,-0.451555 1.174044,0 1.896533,0.451555 0.745067,0.428978 1.2192,1.083733 l 0.248356,-1.196622 2.664177,0.428978 -1.061155,6.073422 q -0.04516,0.180622 -0.06773,0.383822 0,0.180623 0,0.316089 0,0.6096 0.428977,1.016 0.428978,0.4064 1.2192,0.4064 0.6096,0 1.128889,-0.293511 0.519289,-0.293511 0.903111,-0.880533 0.383823,-0.587022 0.6096,-1.444978 0.225778,-0.857955 0.225778,-1.986844 0,-1.557867 -0.677333,-3.002845 -0.677334,-1.467555 -1.873956,-2.573866 -1.174044,-1.128889 -2.822222,-1.783645 -1.6256,-0.677333 -3.522133,-0.677333 -1.919111,0 -3.567289,0.722489 -1.6256,0.699911 -2.822222,1.919111 -1.196623,1.2192 -1.873956,2.867378 -0.677333,1.6256 -0.677333,3.476977 0,1.873956 0.677333,3.499556 0.677333,1.6256 1.873956,2.822222 1.2192,1.2192 2.889955,1.919111 1.670756,0.699911 3.680178,0.699911 1.693333,0 2.957689,-0.383822 1.286933,-0.383822 2.573866,-1.128889 l 0.451556,0.722489 q -1.309511,0.790222 -2.777067,1.241778 -1.444977,0.451556 -3.206044,0.451556 z"/></g></g></g></svg>
